<?xml version="1.0" encoding="UTF-8" standalone="no"?><svg xmlns="http://www.w3.org/2000/svg" xmlns:xlink="http://www.w3.org/1999/xlink" contentScriptType="application/ecmascript" contentStyleType="text/css" height="1187px" preserveAspectRatio="none" style="width:1290px;height:1187px;background:#FFFFFF;" version="1.1" viewBox="0 0 1290 1187" width="1290px" zoomAndPan="magnify"><defs><filter height="300%" id="f1ppavh8u7li65" width="300%" x="-1" y="-1"><feGaussianBlur result="blurOut" stdDeviation="2.0"/><feColorMatrix in="blurOut" result="blurOut2" type="matrix" values="0 0 0 0 0 0 0 0 0 0 0 0 0 0 0 0 0 0 .4 0"/><feOffset dx="4.0" dy="4.0" in="blurOut2" result="blurOut3"/><feBlend in="SourceGraphic" in2="blurOut3" mode="normal"/></filter></defs><g><!--MD5=[389483b25b416ec219cebc080e61c499]
cluster cppmicroservices--><polygon fill="#FFFFFF" filter="url(#f1ppavh8u7li65)" points="16,6,148,6,155,29.6094,1273,29.6094,1273,1180,16,1180,16,6" style="stroke:#000000;stroke-width:1.5;"/><line style="stroke:#000000;stroke-width:1.5;" x1="16" x2="155" y1="29.6094" y2="29.6094"/><text fill="#000000" font-family="sans-serif" font-size="14" font-weight="bold" lengthAdjust="spacing" textLength="126" x="20" y="22.5332">cppmicroservices</text><!--MD5=[d1a1b8a7002d3019a3118a24f51229da]
cluster detail--><polygon fill="#FFFFFF" filter="url(#f1ppavh8u7li65)" points="544,50,589,50,596,73.6094,1249,73.6094,1249,892,544,892,544,50" style="stroke:#000000;stroke-width:1.5;"/><line style="stroke:#000000;stroke-width:1.5;" x1="544" x2="596" y1="73.6094" y2="73.6094"/><text fill="#000000" font-family="sans-serif" font-size="14" font-weight="bold" lengthAdjust="spacing" textLength="39" x="548" y="66.5332">detail</text><!--MD5=[4dbe30c892a1fcdf9fa56ae716fa2093]
class BL--><rect codeLine="3" fill="#FEFECE" filter="url(#f1ppavh8u7li65)" height="48" id="BL" style="stroke:#A80036;stroke-width:1.5;" width="116" x="653" y="1026"/><ellipse cx="668" cy="1042" fill="#ADD1B2" rx="11" ry="11" style="stroke:#A80036;stroke-width:1.0;"/><path d="M670.7656,1037.875 Q670.9219,1037.6563 671.1094,1037.5469 Q671.2969,1037.4375 671.5156,1037.4375 Q671.8906,1037.4375 672.125,1037.6953 Q672.3594,1037.9531 672.3594,1038.5625 L672.3594,1040.0156 Q672.3594,1040.625 672.125,1040.8906 Q671.8906,1041.1563 671.5156,1041.1563 Q671.1719,1041.1563 670.9688,1040.9531 Q670.7656,1040.7656 670.6563,1040.25 Q670.6094,1039.8906 670.4219,1039.7031 Q670.0938,1039.3281 669.4844,1039.1094 Q668.875,1038.8906 668.25,1038.8906 Q667.4844,1038.8906 666.8516,1039.2188 Q666.2188,1039.5469 665.7266,1040.2969 Q665.2344,1041.0469 665.2344,1042.0781 L665.2344,1043.1719 Q665.2344,1044.4063 666.125,1045.2266 Q667.0156,1046.0469 668.6094,1046.0469 Q669.5469,1046.0469 670.2031,1045.7969 Q670.5938,1045.6406 671.0156,1045.2031 Q671.2813,1044.9375 671.4297,1044.8594 Q671.5781,1044.7813 671.7813,1044.7813 Q672.1094,1044.7813 672.3672,1045.0391 Q672.625,1045.2969 672.625,1045.6406 Q672.625,1045.9844 672.2813,1046.3906 Q671.7813,1046.9688 670.9844,1047.2969 Q669.9063,1047.75 668.6094,1047.75 Q667.0938,1047.75 665.8906,1047.125 Q664.9063,1046.625 664.2188,1045.5547 Q663.5313,1044.4844 663.5313,1043.2031 L663.5313,1042.0469 Q663.5313,1040.7188 664.1484,1039.5703 Q664.7656,1038.4219 665.8594,1037.8047 Q666.9531,1037.1875 668.1875,1037.1875 Q668.9219,1037.1875 669.5703,1037.3516 Q670.2188,1037.5156 670.7656,1037.875 Z " fill="#000000"/><text fill="#000000" font-family="sans-serif" font-size="12" lengthAdjust="spacing" textLength="84" x="682" y="1046.9102">BundleListener</text><line style="stroke:#A80036;stroke-width:1.5;" x1="654" x2="768" y1="1058" y2="1058"/><line style="stroke:#A80036;stroke-width:1.5;" x1="654" x2="768" y1="1066" y2="1066"/><!--MD5=[63bfe9915e95778fa37cde03beb0b815]
class BC--><rect codeLine="4" fill="#FEFECE" filter="url(#f1ppavh8u7li65)" height="48" id="BC" style="stroke:#A80036;stroke-width:1.5;" width="112" x="804" y="1026"/><ellipse cx="819" cy="1042" fill="#ADD1B2" rx="11" ry="11" style="stroke:#A80036;stroke-width:1.0;"/><path d="M821.7656,1037.875 Q821.9219,1037.6563 822.1094,1037.5469 Q822.2969,1037.4375 822.5156,1037.4375 Q822.8906,1037.4375 823.125,1037.6953 Q823.3594,1037.9531 823.3594,1038.5625 L823.3594,1040.0156 Q823.3594,1040.625 823.125,1040.8906 Q822.8906,1041.1563 822.5156,1041.1563 Q822.1719,1041.1563 821.9688,1040.9531 Q821.7656,1040.7656 821.6563,1040.25 Q821.6094,1039.8906 821.4219,1039.7031 Q821.0938,1039.3281 820.4844,1039.1094 Q819.875,1038.8906 819.25,1038.8906 Q818.4844,1038.8906 817.8516,1039.2188 Q817.2188,1039.5469 816.7266,1040.2969 Q816.2344,1041.0469 816.2344,1042.0781 L816.2344,1043.1719 Q816.2344,1044.4063 817.125,1045.2266 Q818.0156,1046.0469 819.6094,1046.0469 Q820.5469,1046.0469 821.2031,1045.7969 Q821.5938,1045.6406 822.0156,1045.2031 Q822.2813,1044.9375 822.4297,1044.8594 Q822.5781,1044.7813 822.7813,1044.7813 Q823.1094,1044.7813 823.3672,1045.0391 Q823.625,1045.2969 823.625,1045.6406 Q823.625,1045.9844 823.2813,1046.3906 Q822.7813,1046.9688 821.9844,1047.2969 Q820.9063,1047.75 819.6094,1047.75 Q818.0938,1047.75 816.8906,1047.125 Q815.9063,1046.625 815.2188,1045.5547 Q814.5313,1044.4844 814.5313,1043.2031 L814.5313,1042.0469 Q814.5313,1040.7188 815.1484,1039.5703 Q815.7656,1038.4219 816.8594,1037.8047 Q817.9531,1037.1875 819.1875,1037.1875 Q819.9219,1037.1875 820.5703,1037.3516 Q821.2188,1037.5156 821.7656,1037.875 Z " fill="#000000"/><text fill="#000000" font-family="sans-serif" font-size="12" lengthAdjust="spacing" textLength="80" x="833" y="1046.9102">BundleContext</text><line style="stroke:#A80036;stroke-width:1.5;" x1="805" x2="915" y1="1058" y2="1058"/><line style="stroke:#A80036;stroke-width:1.5;" x1="805" x2="915" y1="1066" y2="1066"/><!--MD5=[93d1dd1ebbbb2326808ba9e192a9d960]
class BT--><rect codeLine="6" fill="#FEFECE" filter="url(#f1ppavh8u7li65)" height="227.8672" id="BT" style="stroke:#A80036;stroke-width:1.5;" width="470" x="79" y="936"/><ellipse cx="264.25" cy="952" fill="#ADD1B2" rx="11" ry="11" style="stroke:#A80036;stroke-width:1.0;"/><path d="M267.0156,947.875 Q267.1719,947.6563 267.3594,947.5469 Q267.5469,947.4375 267.7656,947.4375 Q268.1406,947.4375 268.375,947.6953 Q268.6094,947.9531 268.6094,948.5625 L268.6094,950.0156 Q268.6094,950.625 268.375,950.8906 Q268.1406,951.1563 267.7656,951.1563 Q267.4219,951.1563 267.2188,950.9531 Q267.0156,950.7656 266.9063,950.25 Q266.8594,949.8906 266.6719,949.7031 Q266.3438,949.3281 265.7344,949.1094 Q265.125,948.8906 264.5,948.8906 Q263.7344,948.8906 263.1016,949.2188 Q262.4688,949.5469 261.9766,950.2969 Q261.4844,951.0469 261.4844,952.0781 L261.4844,953.1719 Q261.4844,954.4063 262.375,955.2266 Q263.2656,956.0469 264.8594,956.0469 Q265.7969,956.0469 266.4531,955.7969 Q266.8438,955.6406 267.2656,955.2031 Q267.5313,954.9375 267.6797,954.8594 Q267.8281,954.7813 268.0313,954.7813 Q268.3594,954.7813 268.6172,955.0391 Q268.875,955.2969 268.875,955.6406 Q268.875,955.9844 268.5313,956.3906 Q268.0313,956.9688 267.2344,957.2969 Q266.1563,957.75 264.8594,957.75 Q263.3438,957.75 262.1406,957.125 Q261.1563,956.625 260.4688,955.5547 Q259.7813,954.4844 259.7813,953.2031 L259.7813,952.0469 Q259.7813,950.7188 260.3984,949.5703 Q261.0156,948.4219 262.1094,947.8047 Q263.2031,947.1875 264.4375,947.1875 Q265.1719,947.1875 265.8203,947.3516 Q266.4688,947.5156 267.0156,947.875 Z " fill="#000000"/><text fill="#000000" font-family="sans-serif" font-size="12" lengthAdjust="spacing" textLength="80" x="284.75" y="956.9102">BundleTracker</text><rect fill="#FFFFFF" height="17.0938" style="stroke:#000000;stroke-width:1.0;stroke-dasharray:2.0,2.0;" width="9" x="543" y="933"/><text fill="#000000" font-family="sans-serif" font-size="12" font-style="italic" lengthAdjust="spacing" textLength="7" x="544" y="946.457">T</text><line style="stroke:#A80036;stroke-width:1.5;" x1="80" x2="548" y1="968" y2="968"/><rect fill="none" height="6" style="stroke:#C82930;stroke-width:1.0;" width="6" x="87" y="976"/><text fill="#000000" font-family="sans-serif" font-size="11" lengthAdjust="spacing" textLength="265" x="99" y="983.4189">d : std::unique_ptr&lt;BundleTrackerPrivate&lt;TypeTraits&gt;&gt;</text><line style="stroke:#A80036;stroke-width:1.5;" x1="80" x2="548" y1="989.8359" y2="989.8359"/><ellipse cx="90" cy="1000.8359" fill="#84BE84" rx="3" ry="3" style="stroke:#038048;stroke-width:1.0;"/><text fill="#000000" font-family="sans-serif" font-size="11" lengthAdjust="spacing" textLength="63" x="99" y="1005.2549">Open() : void</text><ellipse cx="90" cy="1014.6719" fill="#84BE84" rx="3" ry="3" style="stroke:#038048;stroke-width:1.0;"/><text fill="#000000" font-family="sans-serif" font-size="11" lengthAdjust="spacing" textLength="64" x="99" y="1019.0908">Close() : void</text><ellipse cx="90" cy="1028.5078" fill="#84BE84" rx="3" ry="3" style="stroke:#038048;stroke-width:1.0;"/><text fill="#000000" font-family="sans-serif" font-size="11" lengthAdjust="spacing" textLength="170" x="99" y="1032.9268">GetBundles() : std::vector&lt;Bundle&gt;</text><ellipse cx="90" cy="1042.3438" fill="#84BE84" rx="3" ry="3" style="stroke:#038048;stroke-width:1.0;"/><text fill="#000000" font-family="sans-serif" font-size="11" lengthAdjust="spacing" textLength="314" x="99" y="1046.7627">GetObject(const Bundle&amp;) : std::shared_ptr&lt;TrackedParamType&gt;</text><ellipse cx="90" cy="1056.1797" fill="#84BE84" rx="3" ry="3" style="stroke:#038048;stroke-width:1.0;"/><text fill="#000000" font-family="sans-serif" font-size="11" lengthAdjust="spacing" textLength="134" x="99" y="1060.5986">GetTracked() : TrackingMap</text><ellipse cx="90" cy="1070.0156" fill="#84BE84" rx="3" ry="3" style="stroke:#038048;stroke-width:1.0;"/><text fill="#000000" font-family="sans-serif" font-size="11" lengthAdjust="spacing" textLength="114" x="99" y="1074.4346">GetTrackingCount() : int</text><ellipse cx="90" cy="1083.8516" fill="#84BE84" rx="3" ry="3" style="stroke:#038048;stroke-width:1.0;"/><text fill="#000000" font-family="sans-serif" font-size="11" lengthAdjust="spacing" textLength="74" x="99" y="1088.2705">IsEmpty() : bool</text><ellipse cx="90" cy="1097.6875" fill="#84BE84" rx="3" ry="3" style="stroke:#038048;stroke-width:1.0;"/><text fill="#000000" font-family="sans-serif" font-size="11" lengthAdjust="spacing" textLength="146" x="99" y="1102.1064">Remove(const Bundle&amp;) : bool</text><ellipse cx="90" cy="1111.5234" fill="#84BE84" rx="3" ry="3" style="stroke:#038048;stroke-width:1.0;"/><text fill="#000000" font-family="sans-serif" font-size="11" lengthAdjust="spacing" textLength="49" x="99" y="1115.9424">Size() : int</text><ellipse cx="90" cy="1125.3594" fill="#84BE84" rx="3" ry="3" style="stroke:#038048;stroke-width:1.0;"/><text fill="#000000" font-family="sans-serif" font-size="11" lengthAdjust="spacing" textLength="433" x="99" y="1129.7783">AddingBundle(const Bundle&amp;, const BundleEvent&amp;): std::shared_ptr&lt;TrackedParamType&gt;</text><ellipse cx="90" cy="1139.1953" fill="#84BE84" rx="3" ry="3" style="stroke:#038048;stroke-width:1.0;"/><text fill="#000000" font-family="sans-serif" font-size="11" lengthAdjust="spacing" textLength="439" x="99" y="1143.6143">ModifiedBundle(const Bundle&amp;, const BundleEvent&amp;): std::shared_ptr&lt;TrackedParamType&gt;</text><ellipse cx="90" cy="1153.0313" fill="#84BE84" rx="3" ry="3" style="stroke:#038048;stroke-width:1.0;"/><text fill="#000000" font-family="sans-serif" font-size="11" lengthAdjust="spacing" textLength="444" x="99" y="1157.4502">RemovedBundle(const Bundle&amp;, const BundleEvent&amp;): std::shared_ptr&lt;TrackedParamType&gt;</text><!--MD5=[41a6dfa6ea5b0f7fece1c903fe219360]
class BTC--><rect codeLine="21" fill="#FEFECE" filter="url(#f1ppavh8u7li65)" height="89.5078" id="BTC" style="stroke:#A80036;stroke-width:1.5;" width="496" x="32" y="758.5"/><ellipse cx="197.75" cy="774.5" fill="#B4A7E5" rx="11" ry="11" style="stroke:#A80036;stroke-width:1.0;"/><path d="M198.7031,771.1406 L198.7031,777.7969 L200.4219,777.7969 Q201.0313,777.7969 201.2969,778.0313 Q201.5625,778.2656 201.5625,778.6563 Q201.5625,779.0313 201.2969,779.2656 Q201.0313,779.5 200.4219,779.5 L195.2813,779.5 Q194.6719,779.5 194.4063,779.2656 Q194.1406,779.0313 194.1406,778.6406 Q194.1406,778.2656 194.4063,778.0313 Q194.6719,777.7969 195.2813,777.7969 L197,777.7969 L197,771.1406 L195.2813,771.1406 Q194.6719,771.1406 194.4063,770.9063 Q194.1406,770.6719 194.1406,770.2813 Q194.1406,769.9063 194.4063,769.6719 Q194.6719,769.4375 195.2813,769.4375 L200.4219,769.4375 Q201.0313,769.4375 201.2969,769.6719 Q201.5625,769.9063 201.5625,770.2813 Q201.5625,770.6719 201.2969,770.9063 Q201.0313,771.1406 200.4219,771.1406 L198.7031,771.1406 Z " fill="#000000"/><text fill="#000000" font-family="sans-serif" font-size="12" font-style="italic" lengthAdjust="spacing" textLength="145" x="218.25" y="779.4102">BundleTrackerCustomizer</text><rect fill="#FFFFFF" height="17.0938" style="stroke:#000000;stroke-width:1.0;stroke-dasharray:2.0,2.0;" width="9" x="522" y="755.5"/><text fill="#000000" font-family="sans-serif" font-size="12" font-style="italic" lengthAdjust="spacing" textLength="7" x="523" y="768.957">T</text><line style="stroke:#A80036;stroke-width:1.5;" x1="33" x2="527" y1="790.5" y2="790.5"/><line style="stroke:#A80036;stroke-width:1.5;" x1="33" x2="527" y1="798.5" y2="798.5"/><ellipse cx="43" cy="809.5" fill="#84BE84" rx="3" ry="3" style="stroke:#038048;stroke-width:1.0;"/><text fill="#000000" font-family="sans-serif" font-size="11" lengthAdjust="spacing" textLength="436" x="52" y="813.9189">AddingBundle(const Bundle&amp;, const BundleEvent&amp;) : std::shared_ptr&lt;TrackedParamType&gt;</text><ellipse cx="43" cy="823.3359" fill="#84BE84" rx="3" ry="3" style="stroke:#038048;stroke-width:1.0;"/><text fill="#000000" font-family="sans-serif" font-size="11" lengthAdjust="spacing" textLength="468" x="52" y="827.7549">modifiedBundle(const Bundle&amp;, const BundleEvent&amp;, std::shared_ptr&lt;TrackedParamType&gt;) : void</text><ellipse cx="43" cy="837.1719" fill="#84BE84" rx="3" ry="3" style="stroke:#038048;stroke-width:1.0;"/><text fill="#000000" font-family="sans-serif" font-size="11" lengthAdjust="spacing" textLength="470" x="52" y="841.5908">removedBundle(const Bundle&amp;, const BundleEvent&amp;, std::shared_ptr&lt;TrackedParamType&gt;) : void</text><!--MD5=[bdee2981d45034eef10477af82105976]
class BTP--><rect codeLine="28" fill="#FEFECE" filter="url(#f1ppavh8u7li65)" height="144.8516" id="BTP" style="stroke:#A80036;stroke-width:1.5;" width="366" x="563" y="731"/><ellipse cx="670.75" cy="747" fill="#ADD1B2" rx="11" ry="11" style="stroke:#A80036;stroke-width:1.0;"/><path d="M673.5156,742.875 Q673.6719,742.6563 673.8594,742.5469 Q674.0469,742.4375 674.2656,742.4375 Q674.6406,742.4375 674.875,742.6953 Q675.1094,742.9531 675.1094,743.5625 L675.1094,745.0156 Q675.1094,745.625 674.875,745.8906 Q674.6406,746.1563 674.2656,746.1563 Q673.9219,746.1563 673.7188,745.9531 Q673.5156,745.7656 673.4063,745.25 Q673.3594,744.8906 673.1719,744.7031 Q672.8438,744.3281 672.2344,744.1094 Q671.625,743.8906 671,743.8906 Q670.2344,743.8906 669.6016,744.2188 Q668.9688,744.5469 668.4766,745.2969 Q667.9844,746.0469 667.9844,747.0781 L667.9844,748.1719 Q667.9844,749.4063 668.875,750.2266 Q669.7656,751.0469 671.3594,751.0469 Q672.2969,751.0469 672.9531,750.7969 Q673.3438,750.6406 673.7656,750.2031 Q674.0313,749.9375 674.1797,749.8594 Q674.3281,749.7813 674.5313,749.7813 Q674.8594,749.7813 675.1172,750.0391 Q675.375,750.2969 675.375,750.6406 Q675.375,750.9844 675.0313,751.3906 Q674.5313,751.9688 673.7344,752.2969 Q672.6563,752.75 671.3594,752.75 Q669.8438,752.75 668.6406,752.125 Q667.6563,751.625 666.9688,750.5547 Q666.2813,749.4844 666.2813,748.2031 L666.2813,747.0469 Q666.2813,745.7188 666.8984,744.5703 Q667.5156,743.4219 668.6094,742.8047 Q669.7031,742.1875 670.9375,742.1875 Q671.6719,742.1875 672.3203,742.3516 Q672.9688,742.5156 673.5156,742.875 Z " fill="#000000"/><text fill="#000000" font-family="sans-serif" font-size="12" lengthAdjust="spacing" textLength="117" x="691.25" y="751.9102">BundleTrackerPrivate</text><rect fill="#FFFFFF" height="17.0938" style="stroke:#000000;stroke-width:1.0;stroke-dasharray:2.0,2.0;" width="23" x="909" y="728"/><text fill="#000000" font-family="sans-serif" font-size="12" font-style="italic" lengthAdjust="spacing" textLength="21" x="910" y="741.457">TTT</text><line style="stroke:#A80036;stroke-width:1.5;" x1="564" x2="928" y1="763" y2="763"/><ellipse cx="574" cy="774" rx="3" ry="3" style="stroke:#038048;stroke-width:1.0;fill:none;"/><text fill="#000000" font-family="sans-serif" font-size="11" lengthAdjust="spacing" textLength="115" x="583" y="778.4189">context : BundleContext</text><ellipse cx="574" cy="787.8359" rx="3" ry="3" style="stroke:#038048;stroke-width:1.0;fill:none;"/><text fill="#000000" font-family="sans-serif" font-size="11" lengthAdjust="spacing" textLength="340" x="583" y="792.2549">customizer : std::weak_ptr&lt;BundleTrackerCustomizer&lt;TrackedType&gt;&gt;</text><ellipse cx="574" cy="801.6719" rx="3" ry="3" style="stroke:#038048;stroke-width:1.0;fill:none;"/><text fill="#000000" font-family="sans-serif" font-size="11" lengthAdjust="spacing" textLength="141" x="583" y="806.0908">listenerToken : ListenerToken</text><ellipse cx="574" cy="815.5078" rx="3" ry="3" style="stroke:#038048;stroke-width:1.0;fill:none;"/><text fill="#000000" font-family="sans-serif" font-size="11" lengthAdjust="spacing" textLength="311" x="583" y="819.9268">trackedBundle : Atomic&lt;std::shared_ptr&lt;TrackedBundle&lt;TTT&gt;&gt;&gt;</text><rect fill="none" height="6" style="stroke:#C82930;stroke-width:1.0;" width="6" x="571" y="826.3438"/><text fill="#000000" font-family="sans-serif" font-size="11" lengthAdjust="spacing" textLength="201" x="583" y="833.7627">q_ptr : std::weak_ptr&lt;BundleTracker&lt;T&gt;&gt;</text><line style="stroke:#A80036;stroke-width:1.5;" x1="564" x2="928" y1="840.1797" y2="840.1797"/><ellipse cx="574" cy="851.1797" fill="#84BE84" rx="3" ry="3" style="stroke:#038048;stroke-width:1.0;"/><text fill="#000000" font-family="sans-serif" font-size="11" lengthAdjust="spacing" textLength="264" x="583" y="855.5986">Tracked() : std::shared_pointer&lt;TrackedBundle&lt;TTT&gt;&gt;</text><rect fill="#F24D5C" height="6" style="stroke:#C82930;stroke-width:1.0;" width="6" x="571" y="862.0156"/><text fill="#000000" font-family="sans-serif" font-size="11" lengthAdjust="spacing" textLength="218" x="583" y="869.4346">q_func() : std::weak_ptr&lt;BundleTracker&lt;T&gt;&gt;</text><!--MD5=[69213cb5fd0246b17e695251017ae695]
class TBL--><rect codeLine="37" fill="#FEFECE" filter="url(#f1ppavh8u7li65)" height="61.8359" id="TBL" style="stroke:#A80036;stroke-width:1.5;" width="236" x="997" y="238"/><ellipse cx="1046.75" cy="254" fill="#B4A7E5" rx="11" ry="11" style="stroke:#A80036;stroke-width:1.0;"/><path d="M1047.7031,250.6406 L1047.7031,257.2969 L1049.4219,257.2969 Q1050.0313,257.2969 1050.2969,257.5313 Q1050.5625,257.7656 1050.5625,258.1563 Q1050.5625,258.5313 1050.2969,258.7656 Q1050.0313,259 1049.4219,259 L1044.2813,259 Q1043.6719,259 1043.4063,258.7656 Q1043.1406,258.5313 1043.1406,258.1406 Q1043.1406,257.7656 1043.4063,257.5313 Q1043.6719,257.2969 1044.2813,257.2969 L1046,257.2969 L1046,250.6406 L1044.2813,250.6406 Q1043.6719,250.6406 1043.4063,250.4063 Q1043.1406,250.1719 1043.1406,249.7813 Q1043.1406,249.4063 1043.4063,249.1719 Q1043.6719,248.9375 1044.2813,248.9375 L1049.4219,248.9375 Q1050.0313,248.9375 1050.2969,249.1719 Q1050.5625,249.4063 1050.5625,249.7813 Q1050.5625,250.1719 1050.2969,250.4063 Q1050.0313,250.6406 1049.4219,250.6406 L1047.7031,250.6406 Z " fill="#000000"/><text fill="#000000" font-family="sans-serif" font-size="12" font-style="italic" lengthAdjust="spacing" textLength="128" x="1067.25" y="258.9102">TrackedBundleListener</text><line style="stroke:#A80036;stroke-width:1.5;" x1="998" x2="1232" y1="270" y2="270"/><line style="stroke:#A80036;stroke-width:1.5;" x1="998" x2="1232" y1="278" y2="278"/><ellipse cx="1008" cy="289" fill="#84BE84" rx="3" ry="3" style="stroke:#038048;stroke-width:1.0;"/><text fill="#000000" font-family="sans-serif" font-size="11" lengthAdjust="spacing" textLength="210" x="1017" y="293.4189">BundleChanged(const BundleEvent&amp;) : void</text><!--MD5=[00fdfad244390b308561b01f36e0fb53]
class TB--><rect codeLine="40" fill="#FEFECE" filter="url(#f1ppavh8u7li65)" height="158.6875" id="TB" style="stroke:#A80036;stroke-width:1.5;" width="520" x="712" y="512"/><ellipse cx="913.75" cy="528" fill="#ADD1B2" rx="11" ry="11" style="stroke:#A80036;stroke-width:1.0;"/><path d="M916.5156,523.875 Q916.6719,523.6563 916.8594,523.5469 Q917.0469,523.4375 917.2656,523.4375 Q917.6406,523.4375 917.875,523.6953 Q918.1094,523.9531 918.1094,524.5625 L918.1094,526.0156 Q918.1094,526.625 917.875,526.8906 Q917.6406,527.1563 917.2656,527.1563 Q916.9219,527.1563 916.7188,526.9531 Q916.5156,526.7656 916.4063,526.25 Q916.3594,525.8906 916.1719,525.7031 Q915.8438,525.3281 915.2344,525.1094 Q914.625,524.8906 914,524.8906 Q913.2344,524.8906 912.6016,525.2188 Q911.9688,525.5469 911.4766,526.2969 Q910.9844,527.0469 910.9844,528.0781 L910.9844,529.1719 Q910.9844,530.4063 911.875,531.2266 Q912.7656,532.0469 914.3594,532.0469 Q915.2969,532.0469 915.9531,531.7969 Q916.3438,531.6406 916.7656,531.2031 Q917.0313,530.9375 917.1797,530.8594 Q917.3281,530.7813 917.5313,530.7813 Q917.8594,530.7813 918.1172,531.0391 Q918.375,531.2969 918.375,531.6406 Q918.375,531.9844 918.0313,532.3906 Q917.5313,532.9688 916.7344,533.2969 Q915.6563,533.75 914.3594,533.75 Q912.8438,533.75 911.6406,533.125 Q910.6563,532.625 909.9688,531.5547 Q909.2813,530.4844 909.2813,529.2031 L909.2813,528.0469 Q909.2813,526.7188 909.8984,525.5703 Q910.5156,524.4219 911.6094,523.8047 Q912.7031,523.1875 913.9375,523.1875 Q914.6719,523.1875 915.3203,523.3516 Q915.9688,523.5156 916.5156,523.875 Z " fill="#000000"/><text fill="#000000" font-family="sans-serif" font-size="12" lengthAdjust="spacing" textLength="83" x="934.25" y="532.9102">TrackedBundle</text><rect fill="#FFFFFF" height="17.0938" style="stroke:#000000;stroke-width:1.0;stroke-dasharray:2.0,2.0;" width="23" x="1212" y="509"/><text fill="#000000" font-family="sans-serif" font-size="12" font-style="italic" lengthAdjust="spacing" textLength="21" x="1213" y="522.457">TTT</text><line style="stroke:#A80036;stroke-width:1.5;" x1="713" x2="1231" y1="544" y2="544"/><rect fill="none" height="6" style="stroke:#C82930;stroke-width:1.0;" width="6" x="720" y="552"/><text fill="#000000" font-family="sans-serif" font-size="11" lengthAdjust="spacing" textLength="97" x="732" y="559.4189">latch : CounterLatch</text><rect fill="none" height="6" style="stroke:#C82930;stroke-width:1.0;" width="6" x="720" y="565.8359"/><text fill="#000000" font-family="sans-serif" font-size="11" lengthAdjust="spacing" textLength="245" x="732" y="573.2549">bundleTracker : std::weak_ptr&lt;BundleTracker&lt;T&gt;&gt;</text><rect fill="none" height="6" style="stroke:#C82930;stroke-width:1.0;" width="6" x="720" y="579.6719"/><text fill="#000000" font-family="sans-serif" font-size="11" lengthAdjust="spacing" textLength="283" x="732" y="587.0908">customizer : std::weak_ptr&lt;BundleTrackerCustomizer&lt;T&gt;&gt;</text><line style="stroke:#A80036;stroke-width:1.5;" x1="713" x2="1231" y1="593.5078" y2="593.5078"/><rect fill="#F24D5C" height="6" style="stroke:#C82930;stroke-width:1.0;" width="6" x="720" y="601.5078"/><text fill="#000000" font-family="sans-serif" font-size="11" lengthAdjust="spacing" textLength="210" x="732" y="608.9268">BundleChanged(const BundleEvent&amp;) : void</text><rect fill="#F24D5C" height="6" style="stroke:#C82930;stroke-width:1.0;" width="6" x="720" y="615.3438"/><text fill="#000000" font-family="sans-serif" font-size="11" lengthAdjust="spacing" textLength="77" x="732" y="622.7627">Modified() : void</text><rect fill="#F24D5C" height="6" style="stroke:#C82930;stroke-width:1.0;" width="6" x="720" y="629.1797"/><text fill="#000000" font-family="sans-serif" font-size="11" lengthAdjust="spacing" textLength="457" x="732" y="636.5986">CustomizerAdding(const Bundle&amp;, const BundleEvent&amp;) : std::shared_ptr&lt;TrackedParamType&gt;</text><rect fill="#F24D5C" height="6" style="stroke:#C82930;stroke-width:1.0;" width="6" x="720" y="643.0156"/><text fill="#000000" font-family="sans-serif" font-size="11" lengthAdjust="spacing" textLength="489" x="732" y="650.4346">CustomzierModified(const Bundle&amp;, const BundleEvent&amp;, std::shared_ptr&lt;TrackedParamType&gt;) : void</text><rect fill="#F24D5C" height="6" style="stroke:#C82930;stroke-width:1.0;" width="6" x="720" y="656.8516"/><text fill="#000000" font-family="sans-serif" font-size="11" lengthAdjust="spacing" textLength="494" x="732" y="664.2705">CustomzierRemoved(const Bundle&amp;, const BundleEvent&amp;, std::shared_ptr&lt;TrackedParamType&gt;) : void</text><!--MD5=[b0a1b9137b50b50b320b426f68562434]
class TS--><rect codeLine="52" fill="#FEFECE" filter="url(#f1ppavh8u7li65)" height="48" id="TS" style="stroke:#A80036;stroke-width:1.5;" width="116" x="561" y="567.5"/><ellipse cx="576" cy="583.5" fill="#ADD1B2" rx="11" ry="11" style="stroke:#A80036;stroke-width:1.0;"/><path d="M578.7656,579.375 Q578.9219,579.1563 579.1094,579.0469 Q579.2969,578.9375 579.5156,578.9375 Q579.8906,578.9375 580.125,579.1953 Q580.3594,579.4531 580.3594,580.0625 L580.3594,581.5156 Q580.3594,582.125 580.125,582.3906 Q579.8906,582.6563 579.5156,582.6563 Q579.1719,582.6563 578.9688,582.4531 Q578.7656,582.2656 578.6563,581.75 Q578.6094,581.3906 578.4219,581.2031 Q578.0938,580.8281 577.4844,580.6094 Q576.875,580.3906 576.25,580.3906 Q575.4844,580.3906 574.8516,580.7188 Q574.2188,581.0469 573.7266,581.7969 Q573.2344,582.5469 573.2344,583.5781 L573.2344,584.6719 Q573.2344,585.9063 574.125,586.7266 Q575.0156,587.5469 576.6094,587.5469 Q577.5469,587.5469 578.2031,587.2969 Q578.5938,587.1406 579.0156,586.7031 Q579.2813,586.4375 579.4297,586.3594 Q579.5781,586.2813 579.7813,586.2813 Q580.1094,586.2813 580.3672,586.5391 Q580.625,586.7969 580.625,587.1406 Q580.625,587.4844 580.2813,587.8906 Q579.7813,588.4688 578.9844,588.7969 Q577.9063,589.25 576.6094,589.25 Q575.0938,589.25 573.8906,588.625 Q572.9063,588.125 572.2188,587.0547 Q571.5313,585.9844 571.5313,584.7031 L571.5313,583.5469 Q571.5313,582.2188 572.1484,581.0703 Q572.7656,579.9219 573.8594,579.3047 Q574.9531,578.6875 576.1875,578.6875 Q576.9219,578.6875 577.5703,578.8516 Q578.2188,579.0156 578.7656,579.375 Z " fill="#000000"/><text fill="#000000" font-family="sans-serif" font-size="12" lengthAdjust="spacing" textLength="84" x="590" y="588.4102">TrackedService</text><line style="stroke:#A80036;stroke-width:1.5;" x1="562" x2="676" y1="599.5" y2="599.5"/><line style="stroke:#A80036;stroke-width:1.5;" x1="562" x2="676" y1="607.5" y2="607.5"/><!--MD5=[1d441b583f937de94e1223e405e9091a]
class BAT--><rect codeLine="53" fill="#FEFECE" filter="url(#f1ppavh8u7li65)" height="366.2266" id="BAT" style="stroke:#A80036;stroke-width:1.5;" width="402" x="560" y="86"/><ellipse cx="666.25" cy="102" fill="#ADD1B2" rx="11" ry="11" style="stroke:#A80036;stroke-width:1.0;"/><path d="M669.0156,97.875 Q669.1719,97.6563 669.3594,97.5469 Q669.5469,97.4375 669.7656,97.4375 Q670.1406,97.4375 670.375,97.6953 Q670.6094,97.9531 670.6094,98.5625 L670.6094,100.0156 Q670.6094,100.625 670.375,100.8906 Q670.1406,101.1563 669.7656,101.1563 Q669.4219,101.1563 669.2188,100.9531 Q669.0156,100.7656 668.9063,100.25 Q668.8594,99.8906 668.6719,99.7031 Q668.3438,99.3281 667.7344,99.1094 Q667.125,98.8906 666.5,98.8906 Q665.7344,98.8906 665.1016,99.2188 Q664.4688,99.5469 663.9766,100.2969 Q663.4844,101.0469 663.4844,102.0781 L663.4844,103.1719 Q663.4844,104.4063 664.375,105.2266 Q665.2656,106.0469 666.8594,106.0469 Q667.7969,106.0469 668.4531,105.7969 Q668.8438,105.6406 669.2656,105.2031 Q669.5313,104.9375 669.6797,104.8594 Q669.8281,104.7813 670.0313,104.7813 Q670.3594,104.7813 670.6172,105.0391 Q670.875,105.2969 670.875,105.6406 Q670.875,105.9844 670.5313,106.3906 Q670.0313,106.9688 669.2344,107.2969 Q668.1563,107.75 666.8594,107.75 Q665.3438,107.75 664.1406,107.125 Q663.1563,106.625 662.4688,105.5547 Q661.7813,104.4844 661.7813,103.2031 L661.7813,102.0469 Q661.7813,100.7188 662.3984,99.5703 Q663.0156,98.4219 664.1094,97.8047 Q665.2031,97.1875 666.4375,97.1875 Q667.1719,97.1875 667.8203,97.3516 Q668.4688,97.5156 669.0156,97.875 Z " fill="#000000"/><text fill="#000000" font-family="sans-serif" font-size="12" lengthAdjust="spacing" textLength="127" x="686.75" y="106.9102">BundleAbstractTracked</text><rect fill="#FFFFFF" height="17.0938" style="stroke:#000000;stroke-width:1.0;stroke-dasharray:2.0,2.0;" width="52" x="913" y="83"/><text fill="#000000" font-family="sans-serif" font-size="12" font-style="italic" lengthAdjust="spacing" textLength="50" x="914" y="96.457">S, TTT, R</text><line style="stroke:#A80036;stroke-width:1.5;" x1="561" x2="961" y1="118" y2="118"/><ellipse cx="571" cy="129" rx="3" ry="3" style="stroke:#038048;stroke-width:1.0;fill:none;"/><text fill="#000000" font-family="sans-serif" font-size="11" lengthAdjust="spacing" textLength="85" x="580" y="133.4189">initial : std::list&lt;S&gt;</text><ellipse cx="571" cy="142.8359" rx="3" ry="3" style="stroke:#038048;stroke-width:1.0;fill:none;"/><text fill="#000000" font-family="sans-serif" font-size="11" lengthAdjust="spacing" textLength="94" x="580" y="147.2549">adding : std::list&lt;S&gt;</text><ellipse cx="571" cy="156.6719" rx="3" ry="3" style="stroke:#038048;stroke-width:1.0;fill:none;"/><text fill="#000000" font-family="sans-serif" font-size="11" lengthAdjust="spacing" textLength="125" x="580" y="161.0908">closed : std::atmoic&lt;bool&gt;</text><rect fill="none" height="6" style="stroke:#C82930;stroke-width:1.0;" width="6" x="568" y="167.5078"/><text fill="#000000" font-family="sans-serif" font-size="11" lengthAdjust="spacing" textLength="106" x="580" y="174.9268">tracked : TrackingMap</text><rect fill="none" height="6" style="stroke:#C82930;stroke-width:1.0;" width="6" x="568" y="181.3438"/><text fill="#000000" font-family="sans-serif" font-size="11" lengthAdjust="spacing" textLength="150" x="580" y="188.7627">trackingCount : std::atomic&lt;int&gt;</text><rect fill="none" height="6" style="stroke:#C82930;stroke-width:1.0;" width="6" x="568" y="195.1797"/><text fill="#000000" font-family="sans-serif" font-size="11" lengthAdjust="spacing" textLength="91" x="580" y="202.5986">bc : BundleContext</text><line style="stroke:#A80036;stroke-width:1.5;" x1="561" x2="961" y1="209.0156" y2="209.0156"/><ellipse cx="571" cy="220.0156" fill="#84BE84" rx="3" ry="3" style="stroke:#038048;stroke-width:1.0;"/><text fill="#000000" font-family="sans-serif" font-size="11" lengthAdjust="spacing" textLength="184" x="580" y="224.4346">SetInitial(const std::vector&lt;S&gt;&amp;) : void</text><ellipse cx="571" cy="233.8516" fill="#84BE84" rx="3" ry="3" style="stroke:#038048;stroke-width:1.0;"/><text fill="#000000" font-family="sans-serif" font-size="11" lengthAdjust="spacing" textLength="87" x="580" y="238.2705">TrackInitial() : void</text><ellipse cx="571" cy="247.6875" fill="#84BE84" rx="3" ry="3" style="stroke:#038048;stroke-width:1.0;"/><text fill="#000000" font-family="sans-serif" font-size="11" lengthAdjust="spacing" textLength="64" x="580" y="252.1064">Close() : void</text><ellipse cx="571" cy="261.5234" fill="#84BE84" rx="3" ry="3" style="stroke:#038048;stroke-width:1.0;"/><text fill="#000000" font-family="sans-serif" font-size="11" lengthAdjust="spacing" textLength="84" x="580" y="265.9424">Track(S, R) : void</text><ellipse cx="571" cy="275.3594" fill="#84BE84" rx="3" ry="3" style="stroke:#038048;stroke-width:1.0;"/><text fill="#000000" font-family="sans-serif" font-size="11" lengthAdjust="spacing" textLength="94" x="580" y="279.7783">Untrack(S, R) : void</text><ellipse cx="571" cy="289.1953" fill="#84BE84" rx="3" ry="3" style="stroke:#038048;stroke-width:1.0;"/><text fill="#000000" font-family="sans-serif" font-size="11" lengthAdjust="spacing" textLength="137" x="580" y="293.6143">Size_unlocked() : std::size_t</text><ellipse cx="571" cy="303.0313" fill="#84BE84" rx="3" ry="3" style="stroke:#038048;stroke-width:1.0;"/><text fill="#000000" font-family="sans-serif" font-size="11" lengthAdjust="spacing" textLength="123" x="580" y="307.4502">IsEmpty_unlocked() : bool</text><ellipse cx="571" cy="316.8672" fill="#84BE84" rx="3" ry="3" style="stroke:#038048;stroke-width:1.0;"/><text fill="#000000" font-family="sans-serif" font-size="11" lengthAdjust="spacing" textLength="356" x="580" y="321.2861">GetCustomizedObject_unlocked(S) : std::shared_ptr&lt;TrackedParamType&gt;</text><ellipse cx="571" cy="330.7031" fill="#84BE84" rx="3" ry="3" style="stroke:#038048;stroke-width:1.0;"/><text fill="#000000" font-family="sans-serif" font-size="11" lengthAdjust="spacing" textLength="220" x="580" y="335.1221">GetTracked_unlocked(std::vector&lt;S&gt;&amp;) : void</text><ellipse cx="571" cy="344.5391" fill="#84BE84" rx="3" ry="3" style="stroke:#038048;stroke-width:1.0;"/><text fill="#000000" font-family="sans-serif" font-size="11" lengthAdjust="spacing" textLength="77" x="580" y="348.958">Modified() : void</text><ellipse cx="571" cy="358.375" fill="#84BE84" rx="3" ry="3" style="stroke:#038048;stroke-width:1.0;"/><text fill="#000000" font-family="sans-serif" font-size="11" lengthAdjust="spacing" textLength="114" x="580" y="362.7939">GetTrackingCount() : int</text><ellipse cx="571" cy="372.2109" fill="#84BE84" rx="3" ry="3" style="stroke:#038048;stroke-width:1.0;"/><text fill="#000000" font-family="sans-serif" font-size="11" lengthAdjust="spacing" textLength="212" x="580" y="376.6299">CopyEntries_unlocked(TrackingMap&amp;) : void</text><ellipse cx="571" cy="386.0469" fill="#84BE84" rx="3" ry="3" style="stroke:#038048;stroke-width:1.0;"/><text fill="#000000" font-family="sans-serif" font-size="11" lengthAdjust="spacing" textLength="311" x="580" y="390.4658">CustomizerAdding(S, R&amp;) : std::shared_ptr&lt;TrackedParamType&gt;</text><ellipse cx="571" cy="399.8828" fill="#84BE84" rx="3" ry="3" style="stroke:#038048;stroke-width:1.0;"/><text fill="#000000" font-family="sans-serif" font-size="11" lengthAdjust="spacing" textLength="350" x="580" y="404.3018">CustomzierModified(S, R&amp;, std::shared_ptr&lt;TrackedParamType&gt;&amp;) : void</text><ellipse cx="571" cy="413.7188" fill="#84BE84" rx="3" ry="3" style="stroke:#038048;stroke-width:1.0;"/><text fill="#000000" font-family="sans-serif" font-size="11" lengthAdjust="spacing" textLength="355" x="580" y="418.1377">CustomzierRemoved(S, R&amp;, std::shared_ptr&lt;TrackedParamType&gt;&amp;) : void</text><ellipse cx="571" cy="427.5547" fill="#84BE84" rx="3" ry="3" style="stroke:#038048;stroke-width:1.0;"/><text fill="#000000" font-family="sans-serif" font-size="11" lengthAdjust="spacing" textLength="118" x="580" y="431.9736">TrackAdding(S, R) : void</text><rect fill="#F24D5C" height="6" style="stroke:#C82930;stroke-width:1.0;" width="6" x="568" y="438.3906"/><text fill="#000000" font-family="sans-serif" font-size="11" lengthAdjust="spacing" textLength="376" x="580" y="445.8096">CustomizerAddingFinal(S, const std::shared_ptr&lt;TrackedParamType&gt;&amp;) : bool</text><!--MD5=[9e2ef345445e7b6b0523d8fe713ae647]
reverse link BTC to BT--><path codeLine="79" d="M288.93,868.69 C291.79,889.3 295.06,912.78 298.26,935.82 " fill="none" id="BTC-backto-BT" style="stroke:#A80036;stroke-width:1.0;"/><polygon fill="none" points="281.98,869.55,286.16,848.78,295.85,867.62,281.98,869.55" style="stroke:#A80036;stroke-width:1.0;"/><!--MD5=[bcde373f95adde5abceec89c4cd4ed37]
reverse link BT to BTP--><path codeLine="80" d="M538.89,929.36 C571.15,911.12 603.14,892.81 632.01,876.04 " fill="none" id="BT-backto-BTP" style="stroke:#A80036;stroke-width:1.0;"/><polygon fill="#A80036" points="527.47,935.8,534.6613,936.3344,537.9204,929.9018,530.7292,929.3674,527.47,935.8" style="stroke:#A80036;stroke-width:1.0;"/><!--MD5=[23e60285e28e9a4b7d17a25c1da2708f]
reverse link BTP to BT--><path codeLine="81" d="M596.24,882.48 C565.61,899.47 533.03,917.77 501.29,935.8 " fill="none" id="BTP-backto-BT" style="stroke:#A80036;stroke-width:1.0;"/><polygon fill="#FFFFFF" points="607.88,876.04,600.6932,875.4488,597.3833,881.8554,604.5701,882.4466,607.88,876.04" style="stroke:#A80036;stroke-width:1.0;"/><!--MD5=[dda693158a2269094c4798b583b8ccab]
reverse link BAT to TB--><path codeLine="82" d="M892.16,469.22 C901.95,484.09 911.43,498.49 920.23,511.86 " fill="none" id="BAT-backto-TB" style="stroke:#A80036;stroke-width:1.0;"/><polygon fill="none" points="886.14,472.81,880.99,452.25,897.83,465.11,886.14,472.81" style="stroke:#A80036;stroke-width:1.0;"/><!--MD5=[5aaa4641774891a3c73a93cac076f6ee]
reverse link TBL to TB--><path codeLine="83" d="M1093.35,318.52 C1070.49,369.76 1034.09,451.34 1007.11,511.81 " fill="none" id="TBL-backto-TB" style="stroke:#A80036;stroke-width:1.0;"/><polygon fill="none" points="1087.01,315.56,1101.55,300.15,1099.79,321.27,1087.01,315.56" style="stroke:#A80036;stroke-width:1.0;"/><!--MD5=[d8d4732a3a297cc0b314c034b23add48]
reverse link TB to BTP--><path codeLine="84" d="M877.5,680.31 C859.37,697.16 840.58,714.62 823.08,730.88 " fill="none" id="TB-backto-BTP" style="stroke:#A80036;stroke-width:1.0;"/><polygon fill="#A80036" points="887.2,671.29,880.082,672.4452,878.4107,679.46,885.5287,678.3047,887.2,671.29" style="stroke:#A80036;stroke-width:1.0;"/><!--MD5=[1920c535d9b0f34b2c19c90fdc3ed05c]
reverse link BTP to BC--><path codeLine="85" d="M784.94,888.02 C807.61,936.63 834.52,994.34 849.17,1025.77 " fill="none" id="BTP-backto-BC" style="stroke:#A80036;stroke-width:1.0;"/><polygon fill="#FFFFFF" points="779.43,876.21,778.3355,883.3376,784.4938,887.0892,785.5883,879.9617,779.43,876.21" style="stroke:#A80036;stroke-width:1.0;"/><!--MD5=[9deada92207f89ed8bd464d829d14228]
reverse link BTP to BL--><path codeLine="86" d="M733.87,889.26 C726.95,937.6 718.79,994.61 714.33,1025.77 " fill="none" id="BTP-backto-BL" style="stroke:#A80036;stroke-width:1.0;"/><polygon fill="#FFFFFF" points="735.74,876.21,730.93,881.5825,734.0393,888.0889,738.8492,882.7163,735.74,876.21" style="stroke:#A80036;stroke-width:1.0;"/><!--MD5=[b3ed72094f7cc776b24dea93e49844f0]
reverse link BTP to BTC--><path codeLine="87" d="M549.84,803.5 C542.56,803.5 535.29,803.5 528.02,803.5 " fill="none" id="BTP-backto-BTC" style="stroke:#A80036;stroke-width:1.0;"/><polygon fill="#FFFFFF" points="562.93,803.5,556.93,799.5,550.93,803.5,556.93,807.5,562.93,803.5" style="stroke:#A80036;stroke-width:1.0;"/><!--MD5=[ef10fcdddae26de9a44bbeec075cfad6]
reverse link BAT to TS--><path codeLine="88" d="M672.1,470.66 C654.85,509.59 639.11,545.12 629.32,567.21 " fill="none" id="BAT-backto-TS" style="stroke:#A80036;stroke-width:1.0;"/><polygon fill="none" points="665.75,467.7,680.25,452.25,678.55,473.37,665.75,467.7" style="stroke:#A80036;stroke-width:1.0;"/><!--MD5=[845cbcb9ba62aeb1428150ed48a6fabc]
@startuml class_diagram
package cppmicroservices {
    
    class "BundleListener" as BL
    class "BundleContext" as BC

    class "BundleTracker" as BT<T> {
        - d : std::unique_ptr<BundleTrackerPrivate<TypeTraits>>
        + Open() : void
        + Close() : void
        + GetBundles() : std::vector<Bundle>
        + GetObject(const Bundle&) : std::shared_ptr<TrackedParamType>
        + GetTracked() : TrackingMap
        + GetTrackingCount() : int
        + IsEmpty() : bool
        + Remove(const Bundle&) : bool
        + Size() : int
        + AddingBundle(const Bundle&, const BundleEvent&): std::shared_ptr<TrackedParamType>
        + ModifiedBundle(const Bundle&, const BundleEvent&): std::shared_ptr<TrackedParamType>
        + RemovedBundle(const Bundle&, const BundleEvent&): std::shared_ptr<TrackedParamType>
    }
    interface "BundleTrackerCustomizer" as BTC<T> {
        + AddingBundle(const Bundle&, const BundleEvent&) : std::shared_ptr<TrackedParamType> 
        + modifiedBundle(const Bundle&, const BundleEvent&, std::shared_ptr<TrackedParamType>) : void
        + removedBundle(const Bundle&, const BundleEvent&, std::shared_ptr<TrackedParamType>) : void
    }
    
    package detail {
        class "BundleTrackerPrivate" as BTP<TTT> {
            + context : BundleContext
            + customizer : std::weak_ptr<BundleTrackerCustomizer<TrackedType>>
            + listenerToken : ListenerToken
            + trackedBundle : Atomic<std::shared_ptr<TrackedBundle<TTT>>>
            + Tracked() : std::shared_pointer<TrackedBundle<TTT>>
            - q_func() : std::weak_ptr<BundleTracker<T>>
            - q_ptr : std::weak_ptr<BundleTracker<T>>
        }
        interface "TrackedBundleListener" as TBL {
            + BundleChanged(const BundleEvent&) : void
        }
        class "TrackedBundle" as TB<TTT> {
            - latch : CounterLatch
            - bundleTracker : std::weak_ptr<BundleTracker<T>>
            - customizer : std::weak_ptr<BundleTrackerCustomizer<T>>

            - BundleChanged(const BundleEvent&) : void
            - Modified() : void
            - CustomizerAdding(const Bundle&, const BundleEvent&) : std::shared_ptr<TrackedParamType>
            - CustomzierModified(const Bundle&, const BundleEvent&, std::shared_ptr<TrackedParamType>) : void
            - CustomzierRemoved(const Bundle&, const BundleEvent&, std::shared_ptr<TrackedParamType>) : void
        
        }
        class "TrackedService" as TS
        class "BundleAbstractTracked" as BAT <S, TTT, R> {
            + SetInitial(const std::vector~<S>&) : void
            + TrackInitial() : void
            + Close() : void
            + Track(S, R) : void
            + Untrack(S, R) : void
            + Size_unlocked() : std::size_t
            + IsEmpty_unlocked() : bool
            + GetCustomizedObject_unlocked(S) : std::shared_ptr<TrackedParamType>
            + GetTracked_unlocked(std::vector~<S>&) : void
            + Modified() : void
            + GetTrackingCount() : int
            + CopyEntries_unlocked(TrackingMap&) : void
            + CustomizerAdding(S, R&) : std::shared_ptr<TrackedParamType>
            + CustomzierModified(S, R&, std::shared_ptr<TrackedParamType>&) : void
            + CustomzierRemoved(S, R&, std::shared_ptr<TrackedParamType>&) : void
            + TrackAdding(S, R) : void
            + initial : std::list~<S>
            + adding : std::list~<S>
            + closed : std::atmoic<bool>
            - tracked : TrackingMap
            - trackingCount : std::atomic<int>
            - bc : BundleContext
            - CustomizerAddingFinal(S, const std::shared_ptr<TrackedParamType>&) : bool
        }
    }
    BTC <|- - BT
    BT *- - BTP
    BTP o- - BT
    BAT <|- - TB
    TBL <|- - TB
    TB *- - BTP
    BTP o- - BC
    BTP o- - BL
    BTP o- - BTC
    BAT <|- - TS

}
@enduml

PlantUML version 1.2022.0(Tue Jan 11 11:16:42 EST 2022)
(GPL source distribution)
Java Runtime: Java(TM) SE Runtime Environment
JVM: Java HotSpot(TM) 64-Bit Server VM
Default Encoding: Cp1252
Language: en
Country: US
--></g></svg>