<?xml version="1.0" encoding="UTF-8" standalone="no"?><svg xmlns="http://www.w3.org/2000/svg" xmlns:xlink="http://www.w3.org/1999/xlink" contentStyleType="text/css" height="1379px" preserveAspectRatio="none" style="width:1493px;height:1379px;background:#FFFFFF;" version="1.1" viewBox="0 0 1493 1379" width="1493px" zoomAndPan="magnify"><defs/><g><!--MD5=[389483b25b416ec219cebc080e61c499]
cluster cppmicroservices--><g id="cluster_cppmicroservices"><path d="M8.5,6 L135.5,6 A3.75,3.75 0 0 1 138,8.5 L145,29.6094 L1483.5,29.6094 A2.5,2.5 0 0 1 1486,32.1094 L1486,1369.5 A2.5,2.5 0 0 1 1483.5,1372 L8.5,1372 A2.5,2.5 0 0 1 6,1369.5 L6,8.5 A2.5,2.5 0 0 1 8.5,6 " style="stroke:#000000;stroke-width:1.5;fill:none;"/><line style="stroke:#000000;stroke-width:1.5;fill:none;" x1="6" x2="145" y1="29.6094" y2="29.6094"/><text fill="#000000" font-family="sans-serif" font-size="14" font-weight="bold" lengthAdjust="spacing" textLength="126" x="10" y="22.5332">cppmicroservices</text></g><!--MD5=[d1a1b8a7002d3019a3118a24f51229da]
cluster detail--><g id="cluster_detail"><path d="M572.5,50 L612.5,50 A3.75,3.75 0 0 1 615,52.5 L622,73.6094 L1459.5,73.6094 A2.5,2.5 0 0 1 1462,76.1094 L1462,1032.5 A2.5,2.5 0 0 1 1459.5,1035 L572.5,1035 A2.5,2.5 0 0 1 570,1032.5 L570,52.5 A2.5,2.5 0 0 1 572.5,50 " style="stroke:#000000;stroke-width:1.5;fill:none;"/><line style="stroke:#000000;stroke-width:1.5;fill:none;" x1="570" x2="622" y1="73.6094" y2="73.6094"/><text fill="#000000" font-family="sans-serif" font-size="14" font-weight="bold" lengthAdjust="spacing" textLength="39" x="574" y="66.5332">detail</text></g><!--MD5=[4dbe30c892a1fcdf9fa56ae716fa2093]
class BL--><g id="elem_BL"><rect codeLine="3" fill="#F1F1F1" height="48" id="BL" rx="2.5" ry="2.5" style="stroke:#181818;stroke-width:0.5;" width="127" x="684.5" y="1193.5"/><ellipse cx="699.5" cy="1209.5" fill="#ADD1B2" rx="11" ry="11" style="stroke:#181818;stroke-width:1.0;"/><path d="M702.2656,1205.375 Q702.4219,1205.1563 702.6094,1205.0469 Q702.7969,1204.9375 703.0156,1204.9375 Q703.3906,1204.9375 703.625,1205.1953 Q703.8594,1205.4531 703.8594,1206.0625 L703.8594,1207.5156 Q703.8594,1208.125 703.625,1208.3906 Q703.3906,1208.6563 703.0156,1208.6563 Q702.6719,1208.6563 702.4688,1208.4531 Q702.2656,1208.2656 702.1563,1207.75 Q702.1094,1207.3906 701.9219,1207.2031 Q701.5938,1206.8281 700.9844,1206.6094 Q700.375,1206.3906 699.75,1206.3906 Q698.9844,1206.3906 698.3516,1206.7188 Q697.7188,1207.0469 697.2266,1207.7969 Q696.7344,1208.5469 696.7344,1209.5781 L696.7344,1210.6719 Q696.7344,1211.9063 697.625,1212.7266 Q698.5156,1213.5469 700.1094,1213.5469 Q701.0469,1213.5469 701.7031,1213.2969 Q702.0938,1213.1406 702.5156,1212.7031 Q702.7813,1212.4375 702.9297,1212.3594 Q703.0781,1212.2813 703.2813,1212.2813 Q703.6094,1212.2813 703.8672,1212.5391 Q704.125,1212.7969 704.125,1213.1406 Q704.125,1213.4844 703.7813,1213.8906 Q703.2813,1214.4688 702.4844,1214.7969 Q701.4063,1215.25 700.1094,1215.25 Q698.5938,1215.25 697.3906,1214.625 Q696.4063,1214.125 695.7188,1213.0547 Q695.0313,1211.9844 695.0313,1210.7031 L695.0313,1209.5469 Q695.0313,1208.2188 695.6484,1207.0703 Q696.2656,1205.9219 697.3594,1205.3047 Q698.4531,1204.6875 699.6875,1204.6875 Q700.4219,1204.6875 701.0703,1204.8516 Q701.7188,1205.0156 702.2656,1205.375 Z " fill="#000000"/><text fill="#000000" font-family="sans-serif" font-size="14" lengthAdjust="spacing" textLength="95" x="713.5" y="1215.2285">BundleListener</text><line style="stroke:#181818;stroke-width:0.5;" x1="685.5" x2="810.5" y1="1225.5" y2="1225.5"/><line style="stroke:#181818;stroke-width:0.5;" x1="685.5" x2="810.5" y1="1233.5" y2="1233.5"/></g><!--MD5=[63bfe9915e95778fa37cde03beb0b815]
class BC--><g id="elem_BC"><rect codeLine="4" fill="#F1F1F1" height="48" id="BC" rx="2.5" ry="2.5" style="stroke:#181818;stroke-width:0.5;" width="124" x="847" y="1193.5"/><ellipse cx="862" cy="1209.5" fill="#ADD1B2" rx="11" ry="11" style="stroke:#181818;stroke-width:1.0;"/><path d="M864.7656,1205.375 Q864.9219,1205.1563 865.1094,1205.0469 Q865.2969,1204.9375 865.5156,1204.9375 Q865.8906,1204.9375 866.125,1205.1953 Q866.3594,1205.4531 866.3594,1206.0625 L866.3594,1207.5156 Q866.3594,1208.125 866.125,1208.3906 Q865.8906,1208.6563 865.5156,1208.6563 Q865.1719,1208.6563 864.9688,1208.4531 Q864.7656,1208.2656 864.6563,1207.75 Q864.6094,1207.3906 864.4219,1207.2031 Q864.0938,1206.8281 863.4844,1206.6094 Q862.875,1206.3906 862.25,1206.3906 Q861.4844,1206.3906 860.8516,1206.7188 Q860.2188,1207.0469 859.7266,1207.7969 Q859.2344,1208.5469 859.2344,1209.5781 L859.2344,1210.6719 Q859.2344,1211.9063 860.125,1212.7266 Q861.0156,1213.5469 862.6094,1213.5469 Q863.5469,1213.5469 864.2031,1213.2969 Q864.5938,1213.1406 865.0156,1212.7031 Q865.2813,1212.4375 865.4297,1212.3594 Q865.5781,1212.2813 865.7813,1212.2813 Q866.1094,1212.2813 866.3672,1212.5391 Q866.625,1212.7969 866.625,1213.1406 Q866.625,1213.4844 866.2813,1213.8906 Q865.7813,1214.4688 864.9844,1214.7969 Q863.9063,1215.25 862.6094,1215.25 Q861.0938,1215.25 859.8906,1214.625 Q858.9063,1214.125 858.2188,1213.0547 Q857.5313,1211.9844 857.5313,1210.7031 L857.5313,1209.5469 Q857.5313,1208.2188 858.1484,1207.0703 Q858.7656,1205.9219 859.8594,1205.3047 Q860.9531,1204.6875 862.1875,1204.6875 Q862.9219,1204.6875 863.5703,1204.8516 Q864.2188,1205.0156 864.7656,1205.375 Z " fill="#000000"/><text fill="#000000" font-family="sans-serif" font-size="14" lengthAdjust="spacing" textLength="92" x="876" y="1215.2285">BundleContext</text><line style="stroke:#181818;stroke-width:0.5;" x1="848" x2="970" y1="1225.5" y2="1225.5"/><line style="stroke:#181818;stroke-width:0.5;" x1="848" x2="970" y1="1233.5" y2="1233.5"/></g><!--MD5=[93d1dd1ebbbb2326808ba9e192a9d960]
class BT--><g id="elem_BT"><rect codeLine="6" fill="#F1F1F1" height="276.9219" id="BT" rx="2.5" ry="2.5" style="stroke:#181818;stroke-width:0.5;" width="533" x="109.5" y="1079"/><ellipse cx="319.75" cy="1095" fill="#ADD1B2" rx="11" ry="11" style="stroke:#181818;stroke-width:1.0;"/><path d="M322.5156,1090.875 Q322.6719,1090.6563 322.8594,1090.5469 Q323.0469,1090.4375 323.2656,1090.4375 Q323.6406,1090.4375 323.875,1090.6953 Q324.1094,1090.9531 324.1094,1091.5625 L324.1094,1093.0156 Q324.1094,1093.625 323.875,1093.8906 Q323.6406,1094.1563 323.2656,1094.1563 Q322.9219,1094.1563 322.7188,1093.9531 Q322.5156,1093.7656 322.4063,1093.25 Q322.3594,1092.8906 322.1719,1092.7031 Q321.8438,1092.3281 321.2344,1092.1094 Q320.625,1091.8906 320,1091.8906 Q319.2344,1091.8906 318.6016,1092.2188 Q317.9688,1092.5469 317.4766,1093.2969 Q316.9844,1094.0469 316.9844,1095.0781 L316.9844,1096.1719 Q316.9844,1097.4063 317.875,1098.2266 Q318.7656,1099.0469 320.3594,1099.0469 Q321.2969,1099.0469 321.9531,1098.7969 Q322.3438,1098.6406 322.7656,1098.2031 Q323.0313,1097.9375 323.1797,1097.8594 Q323.3281,1097.7813 323.5313,1097.7813 Q323.8594,1097.7813 324.1172,1098.0391 Q324.375,1098.2969 324.375,1098.6406 Q324.375,1098.9844 324.0313,1099.3906 Q323.5313,1099.9688 322.7344,1100.2969 Q321.6563,1100.75 320.3594,1100.75 Q318.8438,1100.75 317.6406,1100.125 Q316.6563,1099.625 315.9688,1098.5547 Q315.2813,1097.4844 315.2813,1096.2031 L315.2813,1095.0469 Q315.2813,1093.7188 315.8984,1092.5703 Q316.5156,1091.4219 317.6094,1090.8047 Q318.7031,1090.1875 319.9375,1090.1875 Q320.6719,1090.1875 321.3203,1090.3516 Q321.9688,1090.5156 322.5156,1090.875 Z " fill="#000000"/><text fill="#000000" font-family="sans-serif" font-size="14" lengthAdjust="spacing" textLength="93" x="340.25" y="1100.7285">BundleTracker</text><rect fill="#FFFFFF" height="17.0938" style="stroke:#000000;stroke-width:1.0;stroke-dasharray:2.0,2.0;" width="9" x="636.5" y="1076"/><text fill="#000000" font-family="sans-serif" font-size="12" font-style="italic" lengthAdjust="spacing" textLength="7" x="637.5" y="1089.457">T</text><line style="stroke:#181818;stroke-width:0.5;" x1="110.5" x2="641.5" y1="1111" y2="1111"/><rect fill="none" height="6" style="stroke:#C82930;stroke-width:1.0;" width="6" x="117.5" y="1119"/><text fill="#000000" font-family="sans-serif" font-size="14" lengthAdjust="spacing" textLength="352" x="129.5" y="1129.5332">d : std::unique_ptr&lt;BundleTrackerPrivate&lt;TypeTraits&gt;&gt;</text><line style="stroke:#181818;stroke-width:0.5;" x1="110.5" x2="641.5" y1="1136.6094" y2="1136.6094"/><ellipse cx="120.5" cy="1147.6094" fill="#84BE84" rx="3" ry="3" style="stroke:#038048;stroke-width:1.0;"/><text fill="#000000" font-family="sans-serif" font-size="14" lengthAdjust="spacing" textLength="83" x="129.5" y="1155.1426">Open() : void</text><ellipse cx="120.5" cy="1165.2188" fill="#84BE84" rx="3" ry="3" style="stroke:#038048;stroke-width:1.0;"/><text fill="#000000" font-family="sans-serif" font-size="14" lengthAdjust="spacing" textLength="84" x="129.5" y="1172.752">Close() : void</text><ellipse cx="120.5" cy="1182.8281" fill="#84BE84" rx="3" ry="3" style="stroke:#038048;stroke-width:1.0;"/><text fill="#000000" font-family="sans-serif" font-size="14" lengthAdjust="spacing" textLength="222" x="129.5" y="1190.3613">GetBundles() : std::vector&lt;Bundle&gt;</text><ellipse cx="120.5" cy="1200.4375" fill="#84BE84" rx="3" ry="3" style="stroke:#038048;stroke-width:1.0;"/><text fill="#000000" font-family="sans-serif" font-size="14" lengthAdjust="spacing" textLength="302" x="129.5" y="1207.9707">GetObject(const Bundle&amp;) : TrackedParamType</text><ellipse cx="120.5" cy="1218.0469" fill="#84BE84" rx="3" ry="3" style="stroke:#038048;stroke-width:1.0;"/><text fill="#000000" font-family="sans-serif" font-size="14" lengthAdjust="spacing" textLength="302" x="129.5" y="1225.5801">GetTracked() : std::unordered_map&lt;Bundle, T&gt;</text><ellipse cx="120.5" cy="1235.6563" fill="#84BE84" rx="3" ry="3" style="stroke:#038048;stroke-width:1.0;"/><text fill="#000000" font-family="sans-serif" font-size="14" lengthAdjust="spacing" textLength="153" x="129.5" y="1243.1895">GetTrackingCount() : int</text><ellipse cx="120.5" cy="1253.2656" fill="#84BE84" rx="3" ry="3" style="stroke:#038048;stroke-width:1.0;"/><text fill="#000000" font-family="sans-serif" font-size="14" lengthAdjust="spacing" textLength="98" x="129.5" y="1260.7988">IsEmpty() : bool</text><ellipse cx="120.5" cy="1270.875" fill="#84BE84" rx="3" ry="3" style="stroke:#038048;stroke-width:1.0;"/><text fill="#000000" font-family="sans-serif" font-size="14" lengthAdjust="spacing" textLength="192" x="129.5" y="1278.4082">Remove(const Bundle&amp;) : bool</text><ellipse cx="120.5" cy="1288.4844" fill="#84BE84" rx="3" ry="3" style="stroke:#038048;stroke-width:1.0;"/><text fill="#000000" font-family="sans-serif" font-size="14" lengthAdjust="spacing" textLength="84" x="129.5" y="1296.0176">Size() : size_t</text><ellipse cx="120.5" cy="1306.0938" fill="#84BE84" rx="3" ry="3" style="stroke:#038048;stroke-width:1.0;"/><text fill="#000000" font-family="sans-serif" font-size="14" lengthAdjust="spacing" textLength="457" x="129.5" y="1313.627">AddingBundle(const Bundle&amp;, const BundleEvent&amp;): TrackedParamType</text><ellipse cx="120.5" cy="1323.7031" fill="#84BE84" rx="3" ry="3" style="stroke:#038048;stroke-width:1.0;"/><text fill="#000000" font-family="sans-serif" font-size="14" lengthAdjust="spacing" textLength="500" x="129.5" y="1331.2363">ModifiedBundle(const Bundle&amp;, const BundleEvent&amp;, TrackedParamType): void</text><ellipse cx="120.5" cy="1341.3125" fill="#84BE84" rx="3" ry="3" style="stroke:#038048;stroke-width:1.0;"/><text fill="#000000" font-family="sans-serif" font-size="14" lengthAdjust="spacing" textLength="507" x="129.5" y="1348.8457">RemovedBundle(const Bundle&amp;, const BundleEvent&amp;, TrackedParamType): void</text></g><!--MD5=[41a6dfa6ea5b0f7fece1c903fe219360]
class BTC--><g id="elem_BTC"><rect codeLine="21" fill="#F1F1F1" height="100.8281" id="BTC" rx="2.5" ry="2.5" style="stroke:#181818;stroke-width:0.5;" width="532" x="22" y="883"/><ellipse cx="195.75" cy="899" fill="#B4A7E5" rx="11" ry="11" style="stroke:#181818;stroke-width:1.0;"/><path d="M196.7031,895.6406 L196.7031,902.2969 L198.4219,902.2969 Q199.0313,902.2969 199.2969,902.5313 Q199.5625,902.7656 199.5625,903.1563 Q199.5625,903.5313 199.2969,903.7656 Q199.0313,904 198.4219,904 L193.2813,904 Q192.6719,904 192.4063,903.7656 Q192.1406,903.5313 192.1406,903.1406 Q192.1406,902.7656 192.4063,902.5313 Q192.6719,902.2969 193.2813,902.2969 L195,902.2969 L195,895.6406 L193.2813,895.6406 Q192.6719,895.6406 192.4063,895.4063 Q192.1406,895.1719 192.1406,894.7813 Q192.1406,894.4063 192.4063,894.1719 Q192.6719,893.9375 193.2813,893.9375 L198.4219,893.9375 Q199.0313,893.9375 199.2969,894.1719 Q199.5625,894.4063 199.5625,894.7813 Q199.5625,895.1719 199.2969,895.4063 Q199.0313,895.6406 198.4219,895.6406 L196.7031,895.6406 Z " fill="#000000"/><text fill="#000000" font-family="sans-serif" font-size="14" font-style="italic" lengthAdjust="spacing" textLength="165" x="216.25" y="904.7285">BundleTrackerCustomizer</text><rect fill="#FFFFFF" height="17.0938" style="stroke:#000000;stroke-width:1.0;stroke-dasharray:2.0,2.0;" width="9" x="548" y="880"/><text fill="#000000" font-family="sans-serif" font-size="12" font-style="italic" lengthAdjust="spacing" textLength="7" x="549" y="893.457">T</text><line style="stroke:#181818;stroke-width:0.5;" x1="23" x2="553" y1="915" y2="915"/><line style="stroke:#181818;stroke-width:0.5;" x1="23" x2="553" y1="923" y2="923"/><ellipse cx="33" cy="934" fill="#84BE84" rx="3" ry="3" style="stroke:#038048;stroke-width:1.0;"/><text fill="#000000" font-family="sans-serif" font-size="14" lengthAdjust="spacing" textLength="461" x="42" y="941.5332">AddingBundle(const Bundle&amp;, const BundleEvent&amp;) : TrackedParamType</text><ellipse cx="33" cy="951.6094" fill="#84BE84" rx="3" ry="3" style="stroke:#038048;stroke-width:1.0;"/><text fill="#000000" font-family="sans-serif" font-size="14" lengthAdjust="spacing" textLength="504" x="42" y="959.1426">modifiedBundle(const Bundle&amp;, const BundleEvent&amp;, TrackedParamType) : void</text><ellipse cx="33" cy="969.2188" fill="#84BE84" rx="3" ry="3" style="stroke:#038048;stroke-width:1.0;"/><text fill="#000000" font-family="sans-serif" font-size="14" lengthAdjust="spacing" textLength="506" x="42" y="976.752">removedBundle(const Bundle&amp;, const BundleEvent&amp;, TrackedParamType) : void</text></g><!--MD5=[bdee2981d45034eef10477af82105976]
class BTP--><g id="elem_BTP"><rect codeLine="28" fill="#F1F1F1" height="171.2656" id="BTP" rx="2.5" ry="2.5" style="stroke:#181818;stroke-width:0.5;" width="480" x="589" y="848"/><ellipse cx="743.75" cy="864" fill="#ADD1B2" rx="11" ry="11" style="stroke:#181818;stroke-width:1.0;"/><path d="M746.5156,859.875 Q746.6719,859.6563 746.8594,859.5469 Q747.0469,859.4375 747.2656,859.4375 Q747.6406,859.4375 747.875,859.6953 Q748.1094,859.9531 748.1094,860.5625 L748.1094,862.0156 Q748.1094,862.625 747.875,862.8906 Q747.6406,863.1563 747.2656,863.1563 Q746.9219,863.1563 746.7188,862.9531 Q746.5156,862.7656 746.4063,862.25 Q746.3594,861.8906 746.1719,861.7031 Q745.8438,861.3281 745.2344,861.1094 Q744.625,860.8906 744,860.8906 Q743.2344,860.8906 742.6016,861.2188 Q741.9688,861.5469 741.4766,862.2969 Q740.9844,863.0469 740.9844,864.0781 L740.9844,865.1719 Q740.9844,866.4063 741.875,867.2266 Q742.7656,868.0469 744.3594,868.0469 Q745.2969,868.0469 745.9531,867.7969 Q746.3438,867.6406 746.7656,867.2031 Q747.0313,866.9375 747.1797,866.8594 Q747.3281,866.7813 747.5313,866.7813 Q747.8594,866.7813 748.1172,867.0391 Q748.375,867.2969 748.375,867.6406 Q748.375,867.9844 748.0313,868.3906 Q747.5313,868.9688 746.7344,869.2969 Q745.6563,869.75 744.3594,869.75 Q742.8438,869.75 741.6406,869.125 Q740.6563,868.625 739.9688,867.5547 Q739.2813,866.4844 739.2813,865.2031 L739.2813,864.0469 Q739.2813,862.7188 739.8984,861.5703 Q740.5156,860.4219 741.6094,859.8047 Q742.7031,859.1875 743.9375,859.1875 Q744.6719,859.1875 745.3203,859.3516 Q745.9688,859.5156 746.5156,859.875 Z " fill="#000000"/><text fill="#000000" font-family="sans-serif" font-size="14" lengthAdjust="spacing" textLength="137" x="764.25" y="869.7285">BundleTrackerPrivate</text><rect fill="#FFFFFF" height="17.0938" style="stroke:#000000;stroke-width:1.0;stroke-dasharray:2.0,2.0;" width="23" x="1049" y="845"/><text fill="#000000" font-family="sans-serif" font-size="12" font-style="italic" lengthAdjust="spacing" textLength="21" x="1050" y="858.457">TTT</text><line style="stroke:#181818;stroke-width:0.5;" x1="590" x2="1068" y1="880" y2="880"/><ellipse cx="600" cy="891" fill="none" rx="3" ry="3" style="stroke:#038048;stroke-width:1.0;"/><text fill="#000000" font-family="sans-serif" font-size="14" lengthAdjust="spacing" textLength="149" x="609" y="898.5332">context : BundleContext</text><ellipse cx="600" cy="908.6094" fill="none" rx="3" ry="3" style="stroke:#038048;stroke-width:1.0;"/><text fill="#000000" font-family="sans-serif" font-size="14" lengthAdjust="spacing" textLength="454" x="609" y="916.1426">customizer : std::shared_ptr&lt;BundleTrackerCustomizer&lt;TrackedType&gt;&gt;</text><ellipse cx="600" cy="926.2188" fill="none" rx="3" ry="3" style="stroke:#038048;stroke-width:1.0;"/><text fill="#000000" font-family="sans-serif" font-size="14" lengthAdjust="spacing" textLength="189" x="609" y="933.752">listenerToken : ListenerToken</text><ellipse cx="600" cy="943.8281" fill="none" rx="3" ry="3" style="stroke:#038048;stroke-width:1.0;"/><text fill="#000000" font-family="sans-serif" font-size="14" lengthAdjust="spacing" textLength="412" x="609" y="951.3613">trackedBundle : Atomic&lt;std::shared_ptr&lt;TrackedBundle&lt;TTT&gt;&gt;&gt;</text><rect fill="none" height="6" style="stroke:#C82930;stroke-width:1.0;" width="6" x="597" y="958.4375"/><text fill="#000000" font-family="sans-serif" font-size="14" lengthAdjust="spacing" textLength="263" x="609" y="968.9707">q_ptr : std::weak_ptr&lt;BundleTracker&lt;T&gt;&gt;</text><line style="stroke:#181818;stroke-width:0.5;" x1="590" x2="1068" y1="976.0469" y2="976.0469"/><ellipse cx="600" cy="987.0469" fill="#84BE84" rx="3" ry="3" style="stroke:#038048;stroke-width:1.0;"/><text fill="#000000" font-family="sans-serif" font-size="14" lengthAdjust="spacing" textLength="352" x="609" y="994.5801">Tracked() : std::shared_pointer&lt;TrackedBundle&lt;TTT&gt;&gt;</text><rect fill="#F24D5C" height="6" style="stroke:#C82930;stroke-width:1.0;" width="6" x="597" y="1001.6563"/><text fill="#000000" font-family="sans-serif" font-size="14" lengthAdjust="spacing" textLength="283" x="609" y="1012.1895">q_func() : std::weak_ptr&lt;BundleTracker&lt;T&gt;&gt;</text></g><!--MD5=[69213cb5fd0246b17e695251017ae695]
class TBL--><g id="elem_TBL"><rect codeLine="37" fill="#F1F1F1" height="65.6094" id="TBL" rx="2.5" ry="2.5" style="stroke:#181818;stroke-width:0.5;" width="303" x="1142.5" y="279.5"/><ellipse cx="1215.75" cy="295.5" fill="#B4A7E5" rx="11" ry="11" style="stroke:#181818;stroke-width:1.0;"/><path d="M1216.7031,292.1406 L1216.7031,298.7969 L1218.4219,298.7969 Q1219.0313,298.7969 1219.2969,299.0313 Q1219.5625,299.2656 1219.5625,299.6563 Q1219.5625,300.0313 1219.2969,300.2656 Q1219.0313,300.5 1218.4219,300.5 L1213.2813,300.5 Q1212.6719,300.5 1212.4063,300.2656 Q1212.1406,300.0313 1212.1406,299.6406 Q1212.1406,299.2656 1212.4063,299.0313 Q1212.6719,298.7969 1213.2813,298.7969 L1215,298.7969 L1215,292.1406 L1213.2813,292.1406 Q1212.6719,292.1406 1212.4063,291.9063 Q1212.1406,291.6719 1212.1406,291.2813 Q1212.1406,290.9063 1212.4063,290.6719 Q1212.6719,290.4375 1213.2813,290.4375 L1218.4219,290.4375 Q1219.0313,290.4375 1219.2969,290.6719 Q1219.5625,290.9063 1219.5625,291.2813 Q1219.5625,291.6719 1219.2969,291.9063 Q1219.0313,292.1406 1218.4219,292.1406 L1216.7031,292.1406 Z " fill="#000000"/><text fill="#000000" font-family="sans-serif" font-size="14" font-style="italic" lengthAdjust="spacing" textLength="148" x="1236.25" y="301.2285">TrackedBundleListener</text><line style="stroke:#181818;stroke-width:0.5;" x1="1143.5" x2="1444.5" y1="311.5" y2="311.5"/><line style="stroke:#181818;stroke-width:0.5;" x1="1143.5" x2="1444.5" y1="319.5" y2="319.5"/><ellipse cx="1153.5" cy="330.5" fill="#84BE84" rx="3" ry="3" style="stroke:#038048;stroke-width:1.0;"/><text fill="#000000" font-family="sans-serif" font-size="14" lengthAdjust="spacing" textLength="277" x="1162.5" y="338.0332">BundleChanged(const BundleEvent&amp;) : void</text></g><!--MD5=[00fdfad244390b308561b01f36e0fb53]
class TB--><g id="elem_TB"><rect codeLine="40" fill="#F1F1F1" height="188.875" id="TB" rx="2.5" ry="2.5" style="stroke:#181818;stroke-width:0.5;" width="563" x="817.5" y="599"/><ellipse cx="1034.25" cy="615" fill="#ADD1B2" rx="11" ry="11" style="stroke:#181818;stroke-width:1.0;"/><path d="M1037.0156,610.875 Q1037.1719,610.6563 1037.3594,610.5469 Q1037.5469,610.4375 1037.7656,610.4375 Q1038.1406,610.4375 1038.375,610.6953 Q1038.6094,610.9531 1038.6094,611.5625 L1038.6094,613.0156 Q1038.6094,613.625 1038.375,613.8906 Q1038.1406,614.1563 1037.7656,614.1563 Q1037.4219,614.1563 1037.2188,613.9531 Q1037.0156,613.7656 1036.9063,613.25 Q1036.8594,612.8906 1036.6719,612.7031 Q1036.3438,612.3281 1035.7344,612.1094 Q1035.125,611.8906 1034.5,611.8906 Q1033.7344,611.8906 1033.1016,612.2188 Q1032.4688,612.5469 1031.9766,613.2969 Q1031.4844,614.0469 1031.4844,615.0781 L1031.4844,616.1719 Q1031.4844,617.4063 1032.375,618.2266 Q1033.2656,619.0469 1034.8594,619.0469 Q1035.7969,619.0469 1036.4531,618.7969 Q1036.8438,618.6406 1037.2656,618.2031 Q1037.5313,617.9375 1037.6797,617.8594 Q1037.8281,617.7813 1038.0313,617.7813 Q1038.3594,617.7813 1038.6172,618.0391 Q1038.875,618.2969 1038.875,618.6406 Q1038.875,618.9844 1038.5313,619.3906 Q1038.0313,619.9688 1037.2344,620.2969 Q1036.1563,620.75 1034.8594,620.75 Q1033.3438,620.75 1032.1406,620.125 Q1031.1563,619.625 1030.4688,618.5547 Q1029.7813,617.4844 1029.7813,616.2031 L1029.7813,615.0469 Q1029.7813,613.7188 1030.3984,612.5703 Q1031.0156,611.4219 1032.1094,610.8047 Q1033.2031,610.1875 1034.4375,610.1875 Q1035.1719,610.1875 1035.8203,610.3516 Q1036.4688,610.5156 1037.0156,610.875 Z " fill="#000000"/><text fill="#000000" font-family="sans-serif" font-size="14" lengthAdjust="spacing" textLength="96" x="1054.75" y="620.7285">TrackedBundle</text><rect fill="#FFFFFF" height="17.0938" style="stroke:#000000;stroke-width:1.0;stroke-dasharray:2.0,2.0;" width="23" x="1360.5" y="596"/><text fill="#000000" font-family="sans-serif" font-size="12" font-style="italic" lengthAdjust="spacing" textLength="21" x="1361.5" y="609.457">TTT</text><line style="stroke:#181818;stroke-width:0.5;" x1="818.5" x2="1379.5" y1="631" y2="631"/><rect fill="none" height="6" style="stroke:#C82930;stroke-width:1.0;" width="6" x="825.5" y="639"/><text fill="#000000" font-family="sans-serif" font-size="14" lengthAdjust="spacing" textLength="128" x="837.5" y="649.5332">latch : CounterLatch</text><rect fill="none" height="6" style="stroke:#C82930;stroke-width:1.0;" width="6" x="825.5" y="656.6094"/><text fill="#000000" font-family="sans-serif" font-size="14" lengthAdjust="spacing" textLength="322" x="837.5" y="667.1426">bundleTracker : std::weak_ptr&lt;BundleTracker&lt;T&gt;&gt;</text><rect fill="none" height="6" style="stroke:#C82930;stroke-width:1.0;" width="6" x="825.5" y="674.2188"/><text fill="#000000" font-family="sans-serif" font-size="14" lengthAdjust="spacing" textLength="367" x="837.5" y="684.752">customizer : std::weak_ptr&lt;BundleTrackerCustomizer&lt;T&gt;&gt;</text><line style="stroke:#181818;stroke-width:0.5;" x1="818.5" x2="1379.5" y1="691.8281" y2="691.8281"/><rect fill="#F24D5C" height="6" style="stroke:#C82930;stroke-width:1.0;" width="6" x="825.5" y="699.8281"/><text fill="#000000" font-family="sans-serif" font-size="14" lengthAdjust="spacing" textLength="277" x="837.5" y="710.3613">BundleChanged(const BundleEvent&amp;) : void</text><rect fill="#F24D5C" height="6" style="stroke:#C82930;stroke-width:1.0;" width="6" x="825.5" y="717.4375"/><text fill="#000000" font-family="sans-serif" font-size="14" lengthAdjust="spacing" textLength="101" x="837.5" y="727.9707">Modified() : void</text><rect fill="#F24D5C" height="6" style="stroke:#C82930;stroke-width:1.0;" width="6" x="825.5" y="735.0469"/><text fill="#000000" font-family="sans-serif" font-size="14" lengthAdjust="spacing" textLength="487" x="837.5" y="745.5801">CustomizerAdding(const Bundle&amp;, const BundleEvent&amp;) : TrackedParamType</text><rect fill="#F24D5C" height="6" style="stroke:#C82930;stroke-width:1.0;" width="6" x="825.5" y="752.6563"/><text fill="#000000" font-family="sans-serif" font-size="14" lengthAdjust="spacing" textLength="530" x="837.5" y="763.1895">CustomzierModified(const Bundle&amp;, const BundleEvent&amp;, TrackedParamType) : void</text><rect fill="#F24D5C" height="6" style="stroke:#C82930;stroke-width:1.0;" width="6" x="825.5" y="770.2656"/><text fill="#000000" font-family="sans-serif" font-size="14" lengthAdjust="spacing" textLength="537" x="837.5" y="780.7988">CustomzierRemoved(const Bundle&amp;, const BundleEvent&amp;, TrackedParamType) : void</text></g><!--MD5=[b0a1b9137b50b50b320b426f68562434]
class TS--><g id="elem_TS"><rect codeLine="52" fill="#F1F1F1" height="48" id="TS" rx="2.5" ry="2.5" style="stroke:#181818;stroke-width:0.5;" width="131" x="651.5" y="669.5"/><ellipse cx="666.5" cy="685.5" fill="#ADD1B2" rx="11" ry="11" style="stroke:#181818;stroke-width:1.0;"/><path d="M669.2656,681.375 Q669.4219,681.1563 669.6094,681.0469 Q669.7969,680.9375 670.0156,680.9375 Q670.3906,680.9375 670.625,681.1953 Q670.8594,681.4531 670.8594,682.0625 L670.8594,683.5156 Q670.8594,684.125 670.625,684.3906 Q670.3906,684.6563 670.0156,684.6563 Q669.6719,684.6563 669.4688,684.4531 Q669.2656,684.2656 669.1563,683.75 Q669.1094,683.3906 668.9219,683.2031 Q668.5938,682.8281 667.9844,682.6094 Q667.375,682.3906 666.75,682.3906 Q665.9844,682.3906 665.3516,682.7188 Q664.7188,683.0469 664.2266,683.7969 Q663.7344,684.5469 663.7344,685.5781 L663.7344,686.6719 Q663.7344,687.9063 664.625,688.7266 Q665.5156,689.5469 667.1094,689.5469 Q668.0469,689.5469 668.7031,689.2969 Q669.0938,689.1406 669.5156,688.7031 Q669.7813,688.4375 669.9297,688.3594 Q670.0781,688.2813 670.2813,688.2813 Q670.6094,688.2813 670.8672,688.5391 Q671.125,688.7969 671.125,689.1406 Q671.125,689.4844 670.7813,689.8906 Q670.2813,690.4688 669.4844,690.7969 Q668.4063,691.25 667.1094,691.25 Q665.5938,691.25 664.3906,690.625 Q663.4063,690.125 662.7188,689.0547 Q662.0313,687.9844 662.0313,686.7031 L662.0313,685.5469 Q662.0313,684.2188 662.6484,683.0703 Q663.2656,681.9219 664.3594,681.3047 Q665.4531,680.6875 666.6875,680.6875 Q667.4219,680.6875 668.0703,680.8516 Q668.7188,681.0156 669.2656,681.375 Z " fill="#000000"/><text fill="#000000" font-family="sans-serif" font-size="14" lengthAdjust="spacing" textLength="99" x="680.5" y="691.2285">TrackedService</text><line style="stroke:#181818;stroke-width:0.5;" x1="652.5" x2="781.5" y1="701.5" y2="701.5"/><line style="stroke:#181818;stroke-width:0.5;" x1="652.5" x2="781.5" y1="709.5" y2="709.5"/></g><!--MD5=[1d441b583f937de94e1223e405e9091a]
class BAT--><g id="elem_BAT"><rect codeLine="53" fill="#F1F1F1" height="453.0156" id="BAT" rx="2.5" ry="2.5" style="stroke:#181818;stroke-width:0.5;" width="521" x="586.5" y="86"/><ellipse cx="741.75" cy="102" fill="#ADD1B2" rx="11" ry="11" style="stroke:#181818;stroke-width:1.0;"/><path d="M744.5156,97.875 Q744.6719,97.6563 744.8594,97.5469 Q745.0469,97.4375 745.2656,97.4375 Q745.6406,97.4375 745.875,97.6953 Q746.1094,97.9531 746.1094,98.5625 L746.1094,100.0156 Q746.1094,100.625 745.875,100.8906 Q745.6406,101.1563 745.2656,101.1563 Q744.9219,101.1563 744.7188,100.9531 Q744.5156,100.7656 744.4063,100.25 Q744.3594,99.8906 744.1719,99.7031 Q743.8438,99.3281 743.2344,99.1094 Q742.625,98.8906 742,98.8906 Q741.2344,98.8906 740.6016,99.2188 Q739.9688,99.5469 739.4766,100.2969 Q738.9844,101.0469 738.9844,102.0781 L738.9844,103.1719 Q738.9844,104.4063 739.875,105.2266 Q740.7656,106.0469 742.3594,106.0469 Q743.2969,106.0469 743.9531,105.7969 Q744.3438,105.6406 744.7656,105.2031 Q745.0313,104.9375 745.1797,104.8594 Q745.3281,104.7813 745.5313,104.7813 Q745.8594,104.7813 746.1172,105.0391 Q746.375,105.2969 746.375,105.6406 Q746.375,105.9844 746.0313,106.3906 Q745.5313,106.9688 744.7344,107.2969 Q743.6563,107.75 742.3594,107.75 Q740.8438,107.75 739.6406,107.125 Q738.6563,106.625 737.9688,105.5547 Q737.2813,104.4844 737.2813,103.2031 L737.2813,102.0469 Q737.2813,100.7188 737.8984,99.5703 Q738.5156,98.4219 739.6094,97.8047 Q740.7031,97.1875 741.9375,97.1875 Q742.6719,97.1875 743.3203,97.3516 Q743.9688,97.5156 744.5156,97.875 Z " fill="#000000"/><text fill="#000000" font-family="sans-serif" font-size="14" lengthAdjust="spacing" textLength="148" x="762.25" y="107.7285">BundleAbstractTracked</text><rect fill="#FFFFFF" height="17.0938" style="stroke:#000000;stroke-width:1.0;stroke-dasharray:2.0,2.0;" width="52" x="1058.5" y="83"/><text fill="#000000" font-family="sans-serif" font-size="12" font-style="italic" lengthAdjust="spacing" textLength="50" x="1059.5" y="96.457">S, TTT, R</text><line style="stroke:#181818;stroke-width:0.5;" x1="587.5" x2="1106.5" y1="118" y2="118"/><ellipse cx="597.5" cy="129" fill="none" rx="3" ry="3" style="stroke:#038048;stroke-width:1.0;"/><text fill="#000000" font-family="sans-serif" font-size="14" lengthAdjust="spacing" textLength="113" x="606.5" y="136.5332">initial : std::list&lt;S&gt;</text><ellipse cx="597.5" cy="146.6094" fill="none" rx="3" ry="3" style="stroke:#038048;stroke-width:1.0;"/><text fill="#000000" font-family="sans-serif" font-size="14" lengthAdjust="spacing" textLength="124" x="606.5" y="154.1426">adding : std::list&lt;S&gt;</text><ellipse cx="597.5" cy="164.2188" fill="none" rx="3" ry="3" style="stroke:#038048;stroke-width:1.0;"/><text fill="#000000" font-family="sans-serif" font-size="14" lengthAdjust="spacing" textLength="164" x="606.5" y="171.752">closed : std::atmoic&lt;bool&gt;</text><rect fill="none" height="6" style="stroke:#C82930;stroke-width:1.0;" width="6" x="594.5" y="178.8281"/><text fill="#000000" font-family="sans-serif" font-size="14" lengthAdjust="spacing" textLength="345" x="606.5" y="189.3613">tracked : std::unordered_map&lt;S, TrackedParamType&gt;</text><rect fill="none" height="6" style="stroke:#C82930;stroke-width:1.0;" width="6" x="594.5" y="196.4375"/><text fill="#000000" font-family="sans-serif" font-size="14" lengthAdjust="spacing" textLength="199" x="606.5" y="206.9707">trackingCount : std::atomic&lt;int&gt;</text><rect fill="none" height="6" style="stroke:#C82930;stroke-width:1.0;" width="6" x="594.5" y="214.0469"/><text fill="#000000" font-family="sans-serif" font-size="14" lengthAdjust="spacing" textLength="119" x="606.5" y="224.5801">bc : BundleContext</text><line style="stroke:#181818;stroke-width:0.5;" x1="587.5" x2="1106.5" y1="231.6563" y2="231.6563"/><ellipse cx="597.5" cy="242.6563" fill="#84BE84" rx="3" ry="3" style="stroke:#038048;stroke-width:1.0;"/><text fill="#000000" font-family="sans-serif" font-size="14" lengthAdjust="spacing" textLength="239" x="606.5" y="250.1895">SetInitial(const std::vector&lt;S&gt;&amp;) : void</text><ellipse cx="597.5" cy="260.2656" fill="#84BE84" rx="3" ry="3" style="stroke:#038048;stroke-width:1.0;"/><text fill="#000000" font-family="sans-serif" font-size="14" lengthAdjust="spacing" textLength="116" x="606.5" y="267.7988">TrackInitial() : void</text><ellipse cx="597.5" cy="277.875" fill="#84BE84" rx="3" ry="3" style="stroke:#038048;stroke-width:1.0;"/><text fill="#000000" font-family="sans-serif" font-size="14" lengthAdjust="spacing" textLength="84" x="606.5" y="285.4082">Close() : void</text><ellipse cx="597.5" cy="295.4844" fill="#84BE84" rx="3" ry="3" style="stroke:#038048;stroke-width:1.0;"/><text fill="#000000" font-family="sans-serif" font-size="14" lengthAdjust="spacing" textLength="111" x="606.5" y="303.0176">Track(S, R) : void</text><ellipse cx="597.5" cy="313.0938" fill="#84BE84" rx="3" ry="3" style="stroke:#038048;stroke-width:1.0;"/><text fill="#000000" font-family="sans-serif" font-size="14" lengthAdjust="spacing" textLength="123" x="606.5" y="320.627">Untrack(S, R) : void</text><ellipse cx="597.5" cy="330.7031" fill="#84BE84" rx="3" ry="3" style="stroke:#038048;stroke-width:1.0;"/><text fill="#000000" font-family="sans-serif" font-size="14" lengthAdjust="spacing" textLength="176" x="606.5" y="338.2363">Size_unlocked() : std::size_t</text><ellipse cx="597.5" cy="348.3125" fill="#84BE84" rx="3" ry="3" style="stroke:#038048;stroke-width:1.0;"/><text fill="#000000" font-family="sans-serif" font-size="14" lengthAdjust="spacing" textLength="163" x="606.5" y="355.8457">IsEmpty_unlocked() : bool</text><ellipse cx="597.5" cy="365.9219" fill="#84BE84" rx="3" ry="3" style="stroke:#038048;stroke-width:1.0;"/><text fill="#000000" font-family="sans-serif" font-size="14" lengthAdjust="spacing" textLength="358" x="606.5" y="373.4551">GetCustomizedObject_unlocked(S) : TrackedParamType</text><ellipse cx="597.5" cy="383.5313" fill="#84BE84" rx="3" ry="3" style="stroke:#038048;stroke-width:1.0;"/><text fill="#000000" font-family="sans-serif" font-size="14" lengthAdjust="spacing" textLength="288" x="606.5" y="391.0645">GetTracked_unlocked(std::vector&lt;S&gt;&amp;) : void</text><ellipse cx="597.5" cy="401.1406" fill="#84BE84" rx="3" ry="3" style="stroke:#038048;stroke-width:1.0;"/><text fill="#000000" font-family="sans-serif" font-size="14" lengthAdjust="spacing" textLength="101" x="606.5" y="408.6738">Modified() : void</text><ellipse cx="597.5" cy="418.75" fill="#84BE84" rx="3" ry="3" style="stroke:#038048;stroke-width:1.0;"/><text fill="#000000" font-family="sans-serif" font-size="14" lengthAdjust="spacing" textLength="153" x="606.5" y="426.2832">GetTrackingCount() : int</text><ellipse cx="597.5" cy="436.3594" fill="#84BE84" rx="3" ry="3" style="stroke:#038048;stroke-width:1.0;"/><text fill="#000000" font-family="sans-serif" font-size="14" lengthAdjust="spacing" textLength="281" x="606.5" y="443.8926">CopyEntries_unlocked(TrackingMap&amp;) : void</text><ellipse cx="597.5" cy="453.9688" fill="#84BE84" rx="3" ry="3" style="stroke:#038048;stroke-width:1.0;"/><text fill="#000000" font-family="sans-serif" font-size="14" lengthAdjust="spacing" textLength="297" x="606.5" y="461.502">CustomizerAdding(S, R&amp;) : TrackedParamType</text><ellipse cx="597.5" cy="471.5781" fill="#84BE84" rx="3" ry="3" style="stroke:#038048;stroke-width:1.0;"/><text fill="#000000" font-family="sans-serif" font-size="14" lengthAdjust="spacing" textLength="349" x="606.5" y="479.1113">CustomzierModified(S, R&amp;, TrackedParamType&amp;) : void</text><ellipse cx="597.5" cy="489.1875" fill="#84BE84" rx="3" ry="3" style="stroke:#038048;stroke-width:1.0;"/><text fill="#000000" font-family="sans-serif" font-size="14" lengthAdjust="spacing" textLength="356" x="606.5" y="496.7207">CustomzierRemoved(S, R&amp;, TrackedParamType&amp;) : void</text><ellipse cx="597.5" cy="506.7969" fill="#84BE84" rx="3" ry="3" style="stroke:#038048;stroke-width:1.0;"/><text fill="#000000" font-family="sans-serif" font-size="14" lengthAdjust="spacing" textLength="155" x="606.5" y="514.3301">TrackAdding(S, R) : void</text><rect fill="#F24D5C" height="6" style="stroke:#C82930;stroke-width:1.0;" width="6" x="594.5" y="521.4063"/><text fill="#000000" font-family="sans-serif" font-size="14" lengthAdjust="spacing" textLength="495" x="606.5" y="531.9395">CustomizerAddingFinal(S, const std::shared_ptr&lt;TrackedParamType&gt;&amp;) : bool</text></g><!--MD5=[9e2ef345445e7b6b0523d8fe713ae647]
reverse link BTC to BT--><g id="link_BTC_BT"><path codeLine="79" d="M309.5,1003.4 C316.64,1026.28 324.87,1052.64 333.04,1078.84 " fill="none" id="BTC-backto-BT" style="stroke:#181818;stroke-width:1.0;"/><polygon fill="none" points="302.81,1005.44,303.53,984.27,316.17,1001.27,302.81,1005.44" style="stroke:#181818;stroke-width:1.0;"/></g><!--MD5=[bcde373f95adde5abceec89c4cd4ed37]
reverse link BT to BTP--><g id="link_BT_BTP"><path codeLine="80" d="M621.6,1072.01 C650.65,1053.9 679.29,1035.87 705.58,1019.11 " fill="none" id="BT-backto-BTP" style="stroke:#181818;stroke-width:1.0;"/><polygon fill="#181818" points="610.45,1078.95,617.6577,1079.1721,620.6349,1072.6042,613.4272,1072.3822,610.45,1078.95" style="stroke:#181818;stroke-width:1.0;"/></g><!--MD5=[23e60285e28e9a4b7d17a25c1da2708f]
reverse link BTP to BT--><g id="link_BTP_BT"><path codeLine="81" d="M669.92,1026.04 C642.2,1042.98 613.01,1061 584.21,1078.95 " fill="none" id="BTP-backto-BT" style="stroke:#181818;stroke-width:1.0;"/><polygon fill="none" points="681.29,1019.11,674.0847,1018.8199,671.0457,1025.3594,678.251,1025.6495,681.29,1019.11" style="stroke:#181818;stroke-width:1.0;"/></g><!--MD5=[dda693158a2269094c4798b583b8ccab]
reverse link BAT to TB--><g id="link_BAT_TB"><path codeLine="82" d="M1008.28,556.07 C1018.13,570.88 1027.67,585.22 1036.62,598.69 " fill="none" id="BAT-backto-TB" style="stroke:#181818;stroke-width:1.0;"/><polygon fill="none" points="1002.29,559.7,997.05,539.17,1013.95,551.94,1002.29,559.7" style="stroke:#181818;stroke-width:1.0;"/></g><!--MD5=[5aaa4641774891a3c73a93cac076f6ee]
reverse link TBL to TB--><g id="link_TBL_TB"><path codeLine="83" d="M1268.19,363.67 C1237.46,423.39 1185.51,524.37 1147.26,598.7 " fill="none" id="TBL-backto-TB" style="stroke:#181818;stroke-width:1.0;"/><polygon fill="none" points="1262,360.39,1277.37,345.81,1274.45,366.8,1262,360.39" style="stroke:#181818;stroke-width:1.0;"/></g><!--MD5=[d8d4732a3a297cc0b314c034b23add48]
reverse link TB to BTP--><g id="link_TB_BTP"><path codeLine="84" d="M982.69,797.03 C963.49,813.95 943.77,831.33 925.13,847.76 " fill="none" id="TB-backto-BTP" style="stroke:#181818;stroke-width:1.0;"/><polygon fill="#181818" points="992.68,788.22,985.5339,789.1859,983.6769,796.1538,990.8231,795.1879,992.68,788.22" style="stroke:#181818;stroke-width:1.0;"/></g><!--MD5=[1920c535d9b0f34b2c19c90fdc3ed05c]
reverse link BTP to BC--><g id="link_BTP_BC"><path codeLine="85" d="M856.55,1031.63 C872.94,1089.4 892.42,1158.07 902.4,1193.22 " fill="none" id="BTP-backto-BC" style="stroke:#181818;stroke-width:1.0;"/><polygon fill="none" points="853,1019.11,850.7929,1025.975,856.281,1030.6528,858.4881,1023.7877,853,1019.11" style="stroke:#181818;stroke-width:1.0;"/></g><!--MD5=[9deada92207f89ed8bd464d829d14228]
reverse link BTP to BL--><g id="link_BTP_BL"><path codeLine="86" d="M801.1,1031.63 C784.51,1089.4 764.78,1158.07 754.69,1193.22 " fill="none" id="BTP-backto-BL" style="stroke:#181818;stroke-width:1.0;"/><polygon fill="none" points="804.7,1019.11,799.1992,1023.7728,801.3877,1030.6438,806.8884,1025.981,804.7,1019.11" style="stroke:#181818;stroke-width:1.0;"/></g><!--MD5=[b3ed72094f7cc776b24dea93e49844f0]
reverse link BTP to BTC--><g id="link_BTP_BTC"><path codeLine="87" d="M575.83,933.5 C568.56,933.5 561.28,933.5 554.01,933.5 " fill="none" id="BTP-backto-BTC" style="stroke:#181818;stroke-width:1.0;"/><polygon fill="none" points="588.92,933.5,582.92,929.5,576.92,933.5,582.92,937.5,588.92,933.5" style="stroke:#181818;stroke-width:1.0;"/></g><!--MD5=[ef10fcdddae26de9a44bbeec075cfad6]
reverse link BAT to TS--><g id="link_BAT_TS"><path codeLine="88" d="M763.04,558.28 C747.37,603.95 733.32,644.93 724.97,669.26 " fill="none" id="BAT-backto-TS" style="stroke:#181818;stroke-width:1.0;"/><polygon fill="none" points="756.48,555.81,769.59,539.17,769.73,560.35,756.48,555.81" style="stroke:#181818;stroke-width:1.0;"/></g><!--MD5=[6325059661735a2da879bbdc16dcf320]
@startuml class_diagram
package cppmicroservices {
    
    class "BundleListener" as BL
    class "BundleContext" as BC

    class "BundleTracker" as BT<T> {
        - d : std::unique_ptr<BundleTrackerPrivate<TypeTraits>>
        + Open() : void
        + Close() : void
        + GetBundles() : std::vector<Bundle>
        + GetObject(const Bundle&) : TrackedParamType
        + GetTracked() : std::unordered_map<Bundle, T>
        + GetTrackingCount() : int
        + IsEmpty() : bool
        + Remove(const Bundle&) : bool
        + Size() : size_t
        + AddingBundle(const Bundle&, const BundleEvent&): TrackedParamType
        + ModifiedBundle(const Bundle&, const BundleEvent&, TrackedParamType): void
        + RemovedBundle(const Bundle&, const BundleEvent&, TrackedParamType): void
    }
    interface "BundleTrackerCustomizer" as BTC<T> {
        + AddingBundle(const Bundle&, const BundleEvent&) : TrackedParamType 
        + modifiedBundle(const Bundle&, const BundleEvent&, TrackedParamType) : void
        + removedBundle(const Bundle&, const BundleEvent&, TrackedParamType) : void
    }
    
    package detail {
        class "BundleTrackerPrivate" as BTP<TTT> {
            + context : BundleContext
            + customizer : std::shared_ptr<BundleTrackerCustomizer<TrackedType>>
            + listenerToken : ListenerToken
            + trackedBundle : Atomic<std::shared_ptr<TrackedBundle<TTT>>>
            + Tracked() : std::shared_pointer<TrackedBundle<TTT>>
            - q_func() : std::weak_ptr<BundleTracker<T>>
            - q_ptr : std::weak_ptr<BundleTracker<T>>
        }
        interface "TrackedBundleListener" as TBL {
            + BundleChanged(const BundleEvent&) : void
        }
        class "TrackedBundle" as TB<TTT> {
            - latch : CounterLatch
            - bundleTracker : std::weak_ptr<BundleTracker<T>>
            - customizer : std::weak_ptr<BundleTrackerCustomizer<T>>

            - BundleChanged(const BundleEvent&) : void
            - Modified() : void
            - CustomizerAdding(const Bundle&, const BundleEvent&) : TrackedParamType
            - CustomzierModified(const Bundle&, const BundleEvent&, TrackedParamType) : void
            - CustomzierRemoved(const Bundle&, const BundleEvent&, TrackedParamType) : void
        
        }
        class "TrackedService" as TS
        class "BundleAbstractTracked" as BAT <S, TTT, R> {
            + SetInitial(const std::vector~<S>&) : void
            + TrackInitial() : void
            + Close() : void
            + Track(S, R) : void
            + Untrack(S, R) : void
            + Size_unlocked() : std::size_t
            + IsEmpty_unlocked() : bool
            + GetCustomizedObject_unlocked(S) : TrackedParamType
            + GetTracked_unlocked(std::vector~<S>&) : void
            + Modified() : void
            + GetTrackingCount() : int
            + CopyEntries_unlocked(TrackingMap&) : void
            + CustomizerAdding(S, R&) : TrackedParamType
            + CustomzierModified(S, R&, TrackedParamType&) : void
            + CustomzierRemoved(S, R&, TrackedParamType&) : void
            + TrackAdding(S, R) : void
            + initial : std::list~<S>
            + adding : std::list~<S>
            + closed : std::atmoic<bool>
            - tracked : std::unordered_map<S, TrackedParamType>
            - trackingCount : std::atomic<int>
            - bc : BundleContext
            - CustomizerAddingFinal(S, const std::shared_ptr<TrackedParamType>&) : bool
        }
    }
    BTC <|- - BT
    BT *- - BTP
    BTP o- - BT
    BAT <|- - TB
    TBL <|- - TB
    TB *- - BTP
    BTP o- - BC
    BTP o- - BL
    BTP o- - BTC
    BAT <|- - TS

}
@enduml

PlantUML version 1.2022.5(Sat Apr 30 06:55:52 EDT 2022)
(GPL source distribution)
Java Runtime: Java(TM) SE Runtime Environment
JVM: Java HotSpot(TM) 64-Bit Server VM
Default Encoding: Cp1252
Language: en
Country: US
--></g></svg>