<?xml version="1.0" encoding="UTF-8" standalone="no"?><svg xmlns="http://www.w3.org/2000/svg" xmlns:xlink="http://www.w3.org/1999/xlink" contentScriptType="application/ecmascript" contentStyleType="text/css" height="333px" preserveAspectRatio="none" style="width:501px;height:333px;background:#FFFFFF;" version="1.1" viewBox="0 0 501 333" width="501px" zoomAndPan="magnify"><defs><filter height="300%" id="f1d7acafnraahq" width="300%" x="-1" y="-1"><feGaussianBlur result="blurOut" stdDeviation="2.0"/><feColorMatrix in="blurOut" result="blurOut2" type="matrix" values="0 0 0 0 0 0 0 0 0 0 0 0 0 0 0 0 0 0 .4 0"/><feOffset dx="4.0" dy="4.0" in="blurOut2" result="blurOut3"/><feBlend in="SourceGraphic" in2="blurOut3" mode="normal"/></filter></defs><g><!--MD5=[0ba5ee7700168656dc1b457c6fe9fdac]
entity Client--><ellipse cx="110.5" cy="14" fill="#FEFECE" filter="url(#f1d7acafnraahq)" rx="8" ry="8" style="stroke:#A80036;stroke-width:1.5;"/><path d="M110.5,22 L110.5,49 M97.5,30 L123.5,30 M110.5,49 L97.5,64 M110.5,49 L123.5,64 " fill="none" filter="url(#f1d7acafnraahq)" style="stroke:#A80036;stroke-width:1.5;"/><text fill="#000000" font-family="sans-serif" font-size="14" lengthAdjust="spacing" textLength="36" x="92.5" y="84.0332">Client</text><!--MD5=[12e922f5689a4b39af25c0eb21e26788]
entity BT--><rect fill="#FEFECE" filter="url(#f1d7acafnraahq)" height="37.6094" style="stroke:#000000;stroke-width:1.5;" width="113" x="219" y="27"/><text fill="#000000" font-family="sans-serif" font-size="14" lengthAdjust="spacing" textLength="93" x="229" y="51.5332">BundleTracker</text><!--MD5=[92e1b8d0a4b2a37ccd7fcd96c5dfe02c]
entity TB--><rect fill="#FEFECE" filter="url(#f1d7acafnraahq)" height="37.6094" style="stroke:#000000;stroke-width:1.5;" width="116" x="40.5" y="165.5"/><text fill="#000000" font-family="sans-serif" font-size="14" lengthAdjust="spacing" textLength="96" x="50.5" y="190.0332">TrackedBundle</text><!--MD5=[bf47ed657672796465dc76c4ef1ad49d]
entity BAT--><rect fill="#FEFECE" filter="url(#f1d7acafnraahq)" height="37.6094" style="stroke:#000000;stroke-width:1.5;" width="168" x="320.5" y="165.5"/><text fill="#000000" font-family="sans-serif" font-size="14" lengthAdjust="spacing" textLength="148" x="330.5" y="190.0332">BundleAbstractTracked</text><!--MD5=[6815a7c98912f1a3feb5ab6a43f68320]
entity BTC--><rect fill="#FEFECE" filter="url(#f1d7acafnraahq)" height="37.6094" style="stroke:#000000;stroke-width:1.5;" width="183" x="7" y="284"/><text fill="#000000" font-family="sans-serif" font-size="14" lengthAdjust="spacing" textLength="163" x="17" y="308.5332">BundleTrackerCustomizer</text><path d="M316.5,281.5 L316.5,324.2031 A0,0 0 0 0 316.5,324.2031 L492.5,324.2031 A0,0 0 0 0 492.5,324.2031 L492.5,291.5 L482.5,281.5 L408.5,281.5 L404.5,203.7 L400.5,281.5 L316.5,281.5 A0,0 0 0 0 316.5,281.5 " fill="#FBFB77" filter="url(#f1d7acafnraahq)" style="stroke:#A80036;stroke-width:1.0;"/><path d="M482.5,281.5 L482.5,291.5 L492.5,291.5 L482.5,281.5 " fill="#FBFB77" style="stroke:#A80036;stroke-width:1.0;"/><text fill="#000000" font-family="sans-serif" font-size="13" lengthAdjust="spacing" textLength="155" x="322.5" y="299.9951">Removed Bundle from map</text><text fill="#000000" font-family="sans-serif" font-size="13" lengthAdjust="spacing" textLength="93" x="322.5" y="316.3467">Increment count</text><!--MD5=[6d60a2609ab0a1c9580d799ef3a81eb5]
link Client to BT--><path d="M128.79,46 C149.25,46 183.51,46 213.78,46 " fill="none" id="Client-to-BT" style="stroke:#A80036;stroke-width:1.0;"/><polygon fill="#A80036" points="218.99,46,209.99,42,213.99,46,209.99,50,218.99,46" style="stroke:#A80036;stroke-width:1.0;"/><text fill="#000000" font-family="sans-serif" font-size="13" lengthAdjust="spacing" textLength="54" x="146.75" y="39.4951">Remove()</text><!--MD5=[a2531f00426be942fe55c529d6d7a04e]
link BT to TB--><path d="M252,65.13 C218.14,91.23 156.01,139.15 122.1,165.3 " fill="none" id="BT-TB" style="stroke:#A80036;stroke-width:1.0;"/><text fill="#000000" font-family="sans-serif" font-size="13" lengthAdjust="spacing" textLength="69" x="183.5" y="131.9951">Check open</text><!--MD5=[db06d5436d3370ac98eaeed4eaf978d2]
link BT to BAT--><path d="M292.63,65.13 C316.15,90.01 358.39,134.71 383.69,161.48 " fill="none" id="BT-to-BAT" style="stroke:#A80036;stroke-width:1.0;"/><polygon fill="#A80036" points="387.3,165.3,384.0252,156.0115,383.8656,161.6661,378.211,161.5065,387.3,165.3" style="stroke:#A80036;stroke-width:1.0;"/><text fill="#000000" font-family="sans-serif" font-size="13" lengthAdjust="spacing" textLength="53" x="359.5" y="131.9951">Untrack()</text><!--MD5=[de68e8184bd64218e2c79e24a1b0d28a]
reverse link TB to BAT--><path d="M162.01,184.5 C207.91,184.5 270.38,184.5 320.42,184.5 " fill="none" id="TB-backto-BAT" style="stroke:#A80036;stroke-width:1.0;"/><polygon fill="#A80036" points="156.78,184.5,165.78,188.5,161.78,184.5,165.78,180.5,156.78,184.5" style="stroke:#A80036;stroke-width:1.0;"/><text fill="#000000" font-family="sans-serif" font-size="13" lengthAdjust="spacing" textLength="127" x="175" y="177.9951">CustomizerRemoved()</text><!--MD5=[94eec27b364eedefe4260f9931564d8a]
link TB to BTC--><path d="M98.5,203.7 C98.5,223.97 98.5,256.76 98.5,278.83 " fill="none" id="TB-to-BTC" style="stroke:#A80036;stroke-width:1.0;"/><polygon fill="#A80036" points="98.5,283.92,102.5,274.92,98.5,278.92,94.5,274.92,98.5,283.92" style="stroke:#A80036;stroke-width:1.0;"/><text fill="#000000" font-family="sans-serif" font-size="13" lengthAdjust="spacing" textLength="101" x="99.5" y="247.9951">RemovedBundle()</text><!--MD5=[4f86465f41e9d776fd178bbabba72e6b]
@startuml manrembundle_diagram
:Client: as Client

rectangle "BundleTracker" as BT
'rectangle "BundleTrackerPrivate" as BTP
rectangle "TrackedBundle" as TB
'rectangle "BundleContext" as BC
rectangle "BundleAbstractTracked" as BAT
rectangle "BundleTrackerCustomizer" as BTC

Client -> BT : Remove()
BT -d- TB : Check open
BT -> BAT : Untrack()
TB <- BAT : CustomizerRemoved()
TB -d-> BTC : RemovedBundle()

note bottom of BAT : Removed Bundle from map\nIncrement count


@enduml

@startuml manrembundle_diagram
:Client: as Client

rectangle "BundleTracker" as BT
rectangle "TrackedBundle" as TB
rectangle "BundleAbstractTracked" as BAT
rectangle "BundleTrackerCustomizer" as BTC

Client -> BT : Remove()
BT -d- TB : Check open
BT -> BAT : Untrack()
TB <- BAT : CustomizerRemoved()
TB -d-> BTC : RemovedBundle()

note bottom of BAT : Removed Bundle from map\nIncrement count


@enduml

PlantUML version 1.2022.0(Tue Jan 11 11:16:42 EST 2022)
(GPL source distribution)
Java Runtime: Java(TM) SE Runtime Environment
JVM: Java HotSpot(TM) 64-Bit Server VM
Default Encoding: Cp1252
Language: en
Country: US
--></g></svg>